<svg clas="pb-4" width="40" height="19" viewBox="0 0 40 19" fill="none" xmlns="http://www.w3.org/2000/svg">
                    <rect x="0.5" y="0.5" width="39" height="18" stroke="#5A5A5A"/>
                    <path d="M8.732 14.12C7.844 14.12 7.12 13.824 6.56 13.232C6 12.632 5.72 11.86 5.72 10.916V8.54C5.72 7.596 6 6.828 6.56 6.236C7.128 5.636 7.852 5.336 8.732 5.336C9.612 5.336 10.336 5.636 10.904 6.236C11.472 6.836 11.756 7.604 11.756 8.54V10.916C11.756 11.86 11.472 12.632 10.904 13.232C10.336 13.824 9.612 14.12 8.732 14.12ZM8.732 13.112C9.324 13.112 9.804 12.916 10.172 12.524C10.54 12.132 10.724 11.596 10.724 10.916V8.54C10.724 7.86 10.54 7.324 10.172 6.932C9.804 6.54 9.324 6.344 8.732 6.344C8.148 6.344 7.672 6.54 7.304 6.932C6.936 7.324 6.752 7.86 6.752 8.54V10.916C6.752 11.596 6.936 12.132 7.304 12.524C7.672 12.916 8.148 13.112 8.732 13.112ZM14.8166 14V6.5H13.1726L14.0126 5.48H15.8486V14H14.8166Z" fill="black"/>
                    <mask id="path-3-inside-1_716_248" fill="white">
                    <path d="M24 7.56909L28.5 10.8184L33 7.56909L33 8.67681L28.5 12L24 8.67682L24 7.56909Z"/>
                    </mask>
                    <path d="M24 7.56909L28.5 10.8184L33 7.56909L33 8.67681L28.5 12L24 8.67682L24 7.56909Z" fill="#5A5A5A"/>
                    <path d="M24 7.56909L24.5854 6.75835L23 5.61356L23 7.56909L24 7.56909ZM28.5 10.8184L27.9146 11.6292L28.5 12.0519L29.0854 11.6292L28.5 10.8184ZM33 7.56909L34 7.56909L34 5.61356L32.4146 6.75835L33 7.56909ZM33 8.67681L33.5941 9.48124L34 9.18145L34 8.67681L33 8.67681ZM28.5 12L27.9059 12.8044L28.5 13.2431L29.0941 12.8044L28.5 12ZM24 8.67682L23 8.67682L23 9.18146L23.4059 9.48124L24 8.67682ZM23.4146 8.37982L27.9146 11.6292L29.0854 10.0077L24.5854 6.75835L23.4146 8.37982ZM29.0854 11.6292L33.5854 8.37982L32.4146 6.75835L27.9146 10.0077L29.0854 11.6292ZM32 7.56909L32 8.67681L34 8.67681L34 7.56909L32 7.56909ZM32.4059 7.87239L27.9059 11.1956L29.0941 12.8044L33.5941 9.48124L32.4059 7.87239ZM29.0941 11.1956L24.5941 7.87239L23.4059 9.48124L27.9059 12.8044L29.0941 11.1956ZM25 8.67682L25 7.56909L23 7.56909L23 8.67682L25 8.67682Z" fill="#5A5A5A" mask="url(#path-3-inside-1_716_248)"/>
                    </svg>