<svg width="25" height="18" viewBox="0 0 25 18" fill="none" xmlns="http://www.w3.org/2000/svg">
<mask id="path-1-inside-1_707_73" fill="white">
<path fill-rule="evenodd" clip-rule="evenodd" d="M6.20328 0H12.4066L6.20328 8.7907L12.4066 18H6.20328L0 8.7907L6.20328 0ZM19.496 0L12.8497 9L19.496 18H15.5082L8.86184 9L15.5082 2.15174e-06L19.496 0ZM17.7237 9L24.2223 2.49256e-06L22.0069 2.76079e-06L15.3605 9L22.0069 18H24.2224L17.7237 9Z"/>
</mask>
<path fill-rule="evenodd" clip-rule="evenodd" d="M6.20328 0H12.4066L6.20328 8.7907L12.4066 18H6.20328L0 8.7907L6.20328 0ZM19.496 0L12.8497 9L19.496 18H15.5082L8.86184 9L15.5082 2.15174e-06L19.496 0ZM17.7237 9L24.2223 2.49256e-06L22.0069 2.76079e-06L15.3605 9L22.0069 18H24.2224L17.7237 9Z" fill="black"/>
<path d="M12.4066 0L13.2236 0.576564L14.3361 -1H12.4066V0ZM6.20328 0V-1H5.68503L5.38623 -0.576564L6.20328 0ZM6.20328 8.7907L5.38623 8.21413L4.98868 8.7775L5.37389 9.34937L6.20328 8.7907ZM12.4066 18V19H14.2858L13.2359 17.4413L12.4066 18ZM6.20328 18L5.37389 18.5587L5.67116 19H6.20328V18ZM0 8.7907L-0.817052 8.21413L-1.2146 8.7775L-0.829391 9.34937L0 8.7907ZM12.8497 9L12.0452 8.40595L11.6065 9L12.0452 9.59406L12.8497 9ZM19.496 0L20.3005 0.594055L21.4776 -1L19.496 -1V0ZM19.496 18V19H21.4776L20.3005 17.4059L19.496 18ZM15.5082 18L14.7038 18.5941L15.0036 19H15.5082V18ZM8.86184 9L8.05742 8.40595L7.61871 9L8.05742 9.59406L8.86184 9ZM15.5082 2.15174e-06L15.5082 -0.999998L15.0036 -0.999998L14.7038 -0.594053L15.5082 2.15174e-06ZM24.2223 2.49256e-06L25.0331 0.585414L26.1779 -0.999998L24.2223 -0.999997V2.49256e-06ZM17.7237 9L16.9129 8.41459L16.4902 9L16.9129 9.58541L17.7237 9ZM22.0069 2.76079e-06V-0.999997L21.5023 -0.999997L21.2025 -0.594053L22.0069 2.76079e-06ZM15.3605 9L14.5561 8.40595L14.1174 9L14.5561 9.59406L15.3605 9ZM22.0069 18L21.2025 18.5941L21.5023 19H22.0069V18ZM24.2224 18V19H26.1779L25.0331 17.4146L24.2224 18ZM12.4066 -1H6.20328V1H12.4066V-1ZM7.02033 9.36726L13.2236 0.576564L11.5895 -0.576564L5.38623 8.21413L7.02033 9.36726ZM13.2359 17.4413L7.03267 8.23203L5.37389 9.34937L11.5772 18.5587L13.2359 17.4413ZM6.20328 19H12.4066V17H6.20328V19ZM-0.829391 9.34937L5.37389 18.5587L7.03267 17.4413L0.829391 8.23203L-0.829391 9.34937ZM5.38623 -0.576564L-0.817052 8.21413L0.817052 9.36726L7.02033 0.576564L5.38623 -0.576564ZM13.6541 9.59406L20.3005 0.594055L18.6916 -0.594055L12.0452 8.40595L13.6541 9.59406ZM20.3005 17.4059L13.6541 8.40595L12.0452 9.59406L18.6916 18.5941L20.3005 17.4059ZM15.5082 19H19.496V17H15.5082V19ZM8.05742 9.59406L14.7038 18.5941L16.3126 17.4059L9.66626 8.40595L8.05742 9.59406ZM14.7038 -0.594053L8.05742 8.40595L9.66626 9.59406L16.3126 0.594058L14.7038 -0.594053ZM19.496 -1L15.5082 -0.999998L15.5082 1L19.496 1V-1ZM23.4116 -0.58541L16.9129 8.41459L18.5344 9.58541L25.0331 0.585414L23.4116 -0.58541ZM22.0069 1L24.2223 1V-0.999997L22.0069 -0.999997V1ZM16.1649 9.59406L22.8113 0.594058L21.2025 -0.594053L14.5561 8.40595L16.1649 9.59406ZM22.8113 17.4059L16.1649 8.40595L14.5561 9.59406L21.2025 18.5941L22.8113 17.4059ZM24.2224 17H22.0069V19H24.2224V17ZM16.9129 9.58541L23.4116 18.5854L25.0331 17.4146L18.5344 8.41459L16.9129 9.58541Z" fill="black" mask="url(#path-1-inside-1_707_73)"/>
</svg>
