<svg width="235" height="189" viewBox="0 0 235 189" fill="none" xmlns="http://www.w3.org/2000/svg">
        <path d="M45.128 174V165.48H47.576C48.88 165.48 49.96 165.884 50.816 166.692C51.68 167.5 52.112 168.516 52.112 169.74C52.112 170.964 51.68 171.98 50.816 172.788C49.96 173.596 48.88 174 47.576 174H45.128ZM46.244 172.956H47.576C48.592 172.956 49.412 172.656 50.036 172.056C50.668 171.448 50.984 170.676 50.984 169.74C50.984 168.804 50.668 168.036 50.036 167.436C49.412 166.828 48.592 166.524 47.576 166.524H46.244V172.956ZM54.3764 174V165.48H59.3444V166.536H55.4924V169.116H58.6244V170.172H55.4924V172.944H59.3444V174H54.3764ZM61.6561 174V165.48H62.7721V172.944H66.8881V174H61.6561ZM68.8303 174V165.48H69.9463V174H68.8303ZM75.4093 174L71.7733 165.48H73.0093L75.8773 172.26L78.7573 165.48H79.9693L76.3453 174H75.4093ZM81.8194 174V165.48H86.7874V166.536H82.9354V169.116H86.0674V170.172H82.9354V172.944H86.7874V174H81.8194ZM89.0991 174V165.48H92.0031C92.7871 165.48 93.4071 165.696 93.8631 166.128C94.3191 166.552 94.5471 167.12 94.5471 167.832C94.5471 168.456 94.3591 168.968 93.9831 169.368C93.6151 169.768 93.0991 170.016 92.4351 170.112L95.7231 174H94.3191L91.0431 170.124H90.2151V174H89.0991ZM90.2151 169.128H91.8711C92.3671 169.128 92.7511 169.02 93.0231 168.804C93.2951 168.58 93.4311 168.256 93.4311 167.832C93.4311 167.408 93.2951 167.084 93.0231 166.86C92.7511 166.628 92.3671 166.512 91.8711 166.512H90.2151V169.128ZM97.3163 174V165.48H102.284V166.536H98.4323V169.116H101.564V170.172H98.4323V172.944H102.284V174H97.3163ZM104.596 174V165.48H107.044C108.348 165.48 109.428 165.884 110.284 166.692C111.148 167.5 111.58 168.516 111.58 169.74C111.58 170.964 111.148 171.98 110.284 172.788C109.428 173.596 108.348 174 107.044 174H104.596ZM105.712 172.956H107.044C108.06 172.956 108.88 172.656 109.504 172.056C110.136 171.448 110.452 170.676 110.452 169.74C110.452 168.804 110.136 168.036 109.504 167.436C108.88 166.828 108.06 166.524 107.044 166.524H105.712V172.956Z" fill="black"/>
        <path d="M47.94 186.1C47.2133 186.1 46.61 185.853 46.13 185.36C45.6567 184.867 45.42 184.247 45.42 183.5C45.42 182.747 45.65 182.127 46.11 181.64C46.5767 181.147 47.1933 180.9 47.96 180.9C48.7333 180.9 49.34 181.173 49.78 181.72C50.22 182.267 50.4133 182.937 50.36 183.73H46.29C46.3033 184.183 46.47 184.563 46.79 184.87C47.11 185.17 47.4967 185.32 47.95 185.32C48.63 185.32 49.1133 185.04 49.4 184.48H50.28C50.1533 184.947 49.8833 185.333 49.47 185.64C49.0567 185.947 48.5467 186.1 47.94 186.1ZM48.92 182.02C48.6467 181.78 48.3167 181.66 47.93 181.66C47.5433 181.66 47.1967 181.777 46.89 182.01C46.59 182.243 46.4033 182.59 46.33 183.05H49.45C49.37 182.597 49.1933 182.253 48.92 182.02ZM53.711 186.1C53.151 186.1 52.681 185.963 52.301 185.69C51.9277 185.417 51.721 185.037 51.681 184.55H52.561C52.6143 184.83 52.7477 185.037 52.961 185.17C53.181 185.303 53.4343 185.37 53.721 185.37C54.0077 185.37 54.2377 185.313 54.411 185.2C54.591 185.087 54.681 184.923 54.681 184.71C54.681 184.51 54.6143 184.347 54.481 184.22C54.3543 184.093 54.1443 183.99 53.851 183.91L53.131 183.72C52.271 183.493 51.841 183.003 51.841 182.25C51.841 181.843 52.001 181.517 52.321 181.27C52.6477 181.023 53.0643 180.9 53.571 180.9C54.0843 180.9 54.5043 181.037 54.831 181.31C55.1643 181.577 55.351 181.917 55.391 182.33H54.531C54.4643 182.11 54.3443 181.937 54.171 181.81C54.0043 181.683 53.8043 181.62 53.571 181.62C53.3243 181.62 53.1177 181.677 52.951 181.79C52.791 181.903 52.711 182.053 52.711 182.24C52.711 182.42 52.771 182.567 52.891 182.68C53.011 182.793 53.2043 182.887 53.471 182.96L54.271 183.17C55.1243 183.383 55.551 183.877 55.551 184.65C55.551 185.13 55.381 185.493 55.041 185.74C54.701 185.98 54.2577 186.1 53.711 186.1ZM59.1309 186.05C58.6709 186.05 58.3009 185.92 58.0209 185.66C57.7409 185.4 57.6009 185.02 57.6009 184.52V181.79H56.5409V181H57.6009V179.61H58.4609V181H59.9009V181.79H58.4609V184.41C58.4609 184.723 58.5275 184.943 58.6609 185.07C58.7942 185.197 59.0042 185.26 59.2909 185.26C59.5442 185.26 59.7475 185.227 59.9009 185.16V185.93C59.6609 186.01 59.4042 186.05 59.1309 186.05ZM62.3695 179.49C62.2561 179.603 62.1128 179.66 61.9395 179.66C61.7661 179.66 61.6195 179.603 61.4995 179.49C61.3795 179.37 61.3195 179.223 61.3195 179.05C61.3195 178.883 61.3795 178.74 61.4995 178.62C61.6195 178.5 61.7661 178.44 61.9395 178.44C62.1128 178.44 62.2561 178.5 62.3695 178.62C62.4828 178.74 62.5395 178.883 62.5395 179.05C62.5395 179.223 62.4828 179.37 62.3695 179.49ZM61.4995 186V181H62.3595V186H61.4995ZM70.9297 186V183.06C70.9297 182.647 70.843 182.317 70.6697 182.07C70.503 181.817 70.2597 181.69 69.9397 181.69C69.5397 181.69 69.213 181.847 68.9597 182.16C68.713 182.473 68.583 182.9 68.5697 183.44V186H67.7097V183.06C67.7097 182.64 67.623 182.307 67.4497 182.06C67.283 181.813 67.043 181.69 66.7297 181.69C66.3164 181.69 65.983 181.857 65.7297 182.19C65.4764 182.517 65.3497 182.96 65.3497 183.52V186H64.4897V181H65.3497V181.77C65.6697 181.19 66.173 180.9 66.8597 180.9C67.6197 180.9 68.133 181.257 68.3997 181.97C68.533 181.643 68.7464 181.383 69.0397 181.19C69.333 180.997 69.6664 180.9 70.0397 180.9C70.5797 180.9 71.0064 181.083 71.3197 181.45C71.633 181.817 71.7897 182.31 71.7897 182.93V186H70.9297ZM75.8973 186.1C75.204 186.1 74.6207 185.847 74.1473 185.34C73.6807 184.833 73.4473 184.22 73.4473 183.5C73.4473 182.78 73.6807 182.167 74.1473 181.66C74.6207 181.153 75.204 180.9 75.8973 180.9C76.264 180.9 76.604 180.983 76.9173 181.15C77.2373 181.31 77.484 181.517 77.6573 181.77V181H78.5173V186H77.6573V185.23C77.484 185.483 77.2373 185.693 76.9173 185.86C76.604 186.02 76.264 186.1 75.8973 186.1ZM76.0273 185.31C76.5207 185.31 76.9273 185.137 77.2473 184.79C77.5673 184.443 77.7273 184.013 77.7273 183.5C77.7273 182.987 77.5673 182.557 77.2473 182.21C76.9273 181.863 76.5207 181.69 76.0273 181.69C75.5273 181.69 75.1173 181.863 74.7973 182.21C74.4773 182.557 74.3173 182.987 74.3173 183.5C74.3173 184.013 74.4773 184.443 74.7973 184.79C75.1173 185.137 75.5273 185.31 76.0273 185.31ZM82.5762 186.05C82.1162 186.05 81.7462 185.92 81.4662 185.66C81.1862 185.4 81.0462 185.02 81.0462 184.52V181.79H79.9862V181H81.0462V179.61H81.9062V181H83.3462V181.79H81.9062V184.41C81.9062 184.723 81.9728 184.943 82.1062 185.07C82.2395 185.197 82.4495 185.26 82.7362 185.26C82.9895 185.26 83.1928 185.227 83.3462 185.16V185.93C83.1062 186.01 82.8495 186.05 82.5762 186.05ZM87.0064 186.1C86.2797 186.1 85.6764 185.853 85.1964 185.36C84.7231 184.867 84.4864 184.247 84.4864 183.5C84.4864 182.747 84.7164 182.127 85.1764 181.64C85.6431 181.147 86.2597 180.9 87.0264 180.9C87.7997 180.9 88.4064 181.173 88.8464 181.72C89.2864 182.267 89.4797 182.937 89.4264 183.73H85.3564C85.3697 184.183 85.5364 184.563 85.8564 184.87C86.1764 185.17 86.5631 185.32 87.0164 185.32C87.6964 185.32 88.1797 185.04 88.4664 184.48H89.3464C89.2197 184.947 88.9497 185.333 88.5364 185.64C88.1231 185.947 87.6131 186.1 87.0064 186.1ZM87.9864 182.02C87.7131 181.78 87.3831 181.66 86.9964 181.66C86.6097 181.66 86.2631 181.777 85.9564 182.01C85.6564 182.243 85.4697 182.59 85.3964 183.05H88.5164C88.4364 182.597 88.2597 182.253 87.9864 182.02ZM93.2274 186.1C92.5341 186.1 91.9508 185.847 91.4774 185.34C91.0108 184.833 90.7774 184.22 90.7774 183.5C90.7774 182.78 91.0108 182.167 91.4774 181.66C91.9508 181.153 92.5341 180.9 93.2274 180.9C93.5941 180.9 93.9341 180.983 94.2474 181.15C94.5674 181.31 94.8141 181.517 94.9874 181.77V178.5H95.8474V186H94.9874V185.23C94.8141 185.483 94.5674 185.693 94.2474 185.86C93.9341 186.02 93.5941 186.1 93.2274 186.1ZM93.3574 185.31C93.8508 185.31 94.2574 185.137 94.5774 184.79C94.8974 184.443 95.0574 184.013 95.0574 183.5C95.0574 182.987 94.8974 182.557 94.5774 182.21C94.2574 181.863 93.8508 181.69 93.3574 181.69C92.8574 181.69 92.4474 181.863 92.1274 182.21C91.8074 182.557 91.6474 182.987 91.6474 183.5C91.6474 184.013 91.8074 184.443 92.1274 184.79C92.4474 185.137 92.8574 185.31 93.3574 185.31ZM102.938 186.1C102.245 186.1 101.662 185.847 101.188 185.34C100.722 184.833 100.488 184.22 100.488 183.5C100.488 182.78 100.722 182.167 101.188 181.66C101.662 181.153 102.245 180.9 102.938 180.9C103.305 180.9 103.645 180.983 103.958 181.15C104.278 181.31 104.525 181.517 104.698 181.77V178.5H105.558V186H104.698V185.23C104.525 185.483 104.278 185.693 103.958 185.86C103.645 186.02 103.305 186.1 102.938 186.1ZM103.068 185.31C103.562 185.31 103.968 185.137 104.288 184.79C104.608 184.443 104.768 184.013 104.768 183.5C104.768 182.987 104.608 182.557 104.288 182.21C103.968 181.863 103.562 181.69 103.068 181.69C102.568 181.69 102.158 181.863 101.838 182.21C101.518 182.557 101.358 182.987 101.358 183.5C101.358 184.013 101.518 184.443 101.838 184.79C102.158 185.137 102.568 185.31 103.068 185.31ZM109.807 186.1C109.081 186.1 108.477 185.853 107.997 185.36C107.524 184.867 107.287 184.247 107.287 183.5C107.287 182.747 107.517 182.127 107.977 181.64C108.444 181.147 109.061 180.9 109.827 180.9C110.601 180.9 111.207 181.173 111.647 181.72C112.087 182.267 112.281 182.937 112.227 183.73H108.157C108.171 184.183 108.337 184.563 108.657 184.87C108.977 185.17 109.364 185.32 109.817 185.32C110.497 185.32 110.981 185.04 111.267 184.48H112.147C112.021 184.947 111.751 185.333 111.337 185.64C110.924 185.947 110.414 186.1 109.807 186.1ZM110.787 182.02C110.514 181.78 110.184 181.66 109.797 181.66C109.411 181.66 109.064 181.777 108.757 182.01C108.457 182.243 108.271 182.59 108.197 183.05H111.317C111.237 182.597 111.061 182.253 110.787 182.02ZM113.968 186V178.5H114.828V186H113.968ZM117.828 179.49C117.715 179.603 117.572 179.66 117.398 179.66C117.225 179.66 117.078 179.603 116.958 179.49C116.838 179.37 116.778 179.223 116.778 179.05C116.778 178.883 116.838 178.74 116.958 178.62C117.078 178.5 117.225 178.44 117.398 178.44C117.572 178.44 117.715 178.5 117.828 178.62C117.942 178.74 117.998 178.883 117.998 179.05C117.998 179.223 117.942 179.37 117.828 179.49ZM116.958 186V181H117.818V186H116.958ZM121.509 186L119.199 181H120.159L121.869 184.79L123.579 181H124.539L122.229 186H121.509ZM127.93 186.1C127.204 186.1 126.6 185.853 126.12 185.36C125.647 184.867 125.41 184.247 125.41 183.5C125.41 182.747 125.64 182.127 126.1 181.64C126.567 181.147 127.184 180.9 127.95 180.9C128.724 180.9 129.33 181.173 129.77 181.72C130.21 182.267 130.404 182.937 130.35 183.73H126.28C126.294 184.183 126.46 184.563 126.78 184.87C127.1 185.17 127.487 185.32 127.94 185.32C128.62 185.32 129.104 185.04 129.39 184.48H130.27C130.144 184.947 129.874 185.333 129.46 185.64C129.047 185.947 128.537 186.1 127.93 186.1ZM128.91 182.02C128.637 181.78 128.307 181.66 127.92 181.66C127.534 181.66 127.187 181.777 126.88 182.01C126.58 182.243 126.394 182.59 126.32 183.05H129.44C129.36 182.597 129.184 182.253 128.91 182.02ZM132.091 186V181H132.951V181.97C133.045 181.663 133.225 181.417 133.491 181.23C133.765 181.043 134.051 180.95 134.351 180.95C134.498 180.95 134.628 180.963 134.741 180.99V181.88C134.621 181.827 134.465 181.8 134.271 181.8C133.925 181.8 133.618 181.95 133.351 182.25C133.085 182.55 132.951 182.973 132.951 183.52V186H132.091ZM137.583 188.09H136.623L137.713 185.74L135.523 181H136.473L138.193 184.8L139.903 181H140.863L137.583 188.09ZM146.97 186.1C146.276 186.1 145.693 185.847 145.22 185.34C144.753 184.833 144.52 184.22 144.52 183.5C144.52 182.78 144.753 182.167 145.22 181.66C145.693 181.153 146.276 180.9 146.97 180.9C147.336 180.9 147.676 180.983 147.99 181.15C148.31 181.31 148.556 181.517 148.73 181.77V178.5H149.59V186H148.73V185.23C148.556 185.483 148.31 185.693 147.99 185.86C147.676 186.02 147.336 186.1 146.97 186.1ZM147.1 185.31C147.593 185.31 148 185.137 148.32 184.79C148.64 184.443 148.8 184.013 148.8 183.5C148.8 182.987 148.64 182.557 148.32 182.21C148 181.863 147.593 181.69 147.1 181.69C146.6 181.69 146.19 181.863 145.87 182.21C145.55 182.557 145.39 182.987 145.39 183.5C145.39 184.013 145.55 184.443 145.87 184.79C146.19 185.137 146.6 185.31 147.1 185.31ZM153.768 186.1C153.075 186.1 152.492 185.847 152.018 185.34C151.552 184.833 151.318 184.22 151.318 183.5C151.318 182.78 151.552 182.167 152.018 181.66C152.492 181.153 153.075 180.9 153.768 180.9C154.135 180.9 154.475 180.983 154.788 181.15C155.108 181.31 155.355 181.517 155.528 181.77V181H156.388V186H155.528V185.23C155.355 185.483 155.108 185.693 154.788 185.86C154.475 186.02 154.135 186.1 153.768 186.1ZM153.898 185.31C154.392 185.31 154.798 185.137 155.118 184.79C155.438 184.443 155.598 184.013 155.598 183.5C155.598 182.987 155.438 182.557 155.118 182.21C154.798 181.863 154.392 181.69 153.898 181.69C153.398 181.69 152.988 181.863 152.668 182.21C152.348 182.557 152.188 182.987 152.188 183.5C152.188 184.013 152.348 184.443 152.668 184.79C152.988 185.137 153.398 185.31 153.898 185.31ZM160.447 186.05C159.987 186.05 159.617 185.92 159.337 185.66C159.057 185.4 158.917 185.02 158.917 184.52V181.79H157.857V181H158.917V179.61H159.777V181H161.217V181.79H159.777V184.41C159.777 184.723 159.844 184.943 159.977 185.07C160.111 185.197 160.321 185.26 160.607 185.26C160.861 185.26 161.064 185.227 161.217 185.16V185.93C160.977 186.01 160.721 186.05 160.447 186.05ZM164.877 186.1C164.151 186.1 163.548 185.853 163.068 185.36C162.594 184.867 162.358 184.247 162.358 183.5C162.358 182.747 162.588 182.127 163.048 181.64C163.514 181.147 164.131 180.9 164.898 180.9C165.671 180.9 166.278 181.173 166.718 181.72C167.158 182.267 167.351 182.937 167.298 183.73H163.228C163.241 184.183 163.408 184.563 163.728 184.87C164.048 185.17 164.434 185.32 164.888 185.32C165.568 185.32 166.051 185.04 166.338 184.48H167.217C167.091 184.947 166.821 185.333 166.408 185.64C165.994 185.947 165.484 186.1 164.877 186.1ZM165.858 182.02C165.584 181.78 165.254 181.66 164.868 181.66C164.481 181.66 164.134 181.777 163.828 182.01C163.528 182.243 163.341 182.59 163.268 183.05H166.388C166.308 182.597 166.131 182.253 165.858 182.02ZM172.591 186V179.75H171.221L171.921 178.9H173.451V186H172.591ZM179.983 185.17V186H175.383V185.66C175.383 185.413 175.419 185.18 175.493 184.96C175.573 184.733 175.659 184.543 175.753 184.39C175.846 184.237 175.993 184.067 176.193 183.88C176.393 183.687 176.549 183.547 176.663 183.46C176.776 183.367 176.966 183.227 177.233 183.04C177.499 182.847 177.676 182.72 177.763 182.66C178.236 182.313 178.563 182.023 178.743 181.79C178.929 181.55 179.023 181.237 179.023 180.85C179.023 180.477 178.903 180.18 178.663 179.96C178.423 179.733 178.109 179.62 177.723 179.62C177.316 179.62 176.969 179.743 176.683 179.99C176.396 180.237 176.253 180.58 176.253 181.02H175.373C175.373 180.353 175.593 179.813 176.033 179.4C176.479 178.987 177.039 178.78 177.713 178.78C178.339 178.78 178.859 178.96 179.273 179.32C179.693 179.68 179.903 180.193 179.903 180.86C179.903 181.367 179.779 181.8 179.533 182.16C179.286 182.513 178.863 182.907 178.263 183.34C178.149 183.42 177.989 183.533 177.783 183.68C177.576 183.82 177.416 183.933 177.303 184.02C177.189 184.107 177.063 184.213 176.923 184.34C176.789 184.46 176.683 184.59 176.603 184.73C176.529 184.863 176.476 185.01 176.443 185.17H179.983ZM185.898 186.12C185.292 186.12 184.788 185.943 184.388 185.59C183.988 185.23 183.788 184.733 183.788 184.1H184.708C184.708 184.46 184.822 184.743 185.048 184.95C185.282 185.157 185.562 185.26 185.888 185.26C186.228 185.26 186.508 185.153 186.728 184.94C186.948 184.727 187.058 184.393 187.058 183.94V178.9H187.978V184.04C187.978 184.74 187.782 185.263 187.388 185.61C186.995 185.95 186.498 186.12 185.898 186.12ZM191.853 186.1C191.307 186.1 190.863 185.917 190.523 185.55C190.183 185.177 190.013 184.683 190.013 184.07V181H190.873V183.94C190.873 184.36 190.973 184.693 191.173 184.94C191.38 185.187 191.657 185.31 192.003 185.31C192.403 185.31 192.733 185.147 192.993 184.82C193.26 184.487 193.393 184.04 193.393 183.48V181H194.253V186H193.393V185.23C193.067 185.81 192.553 186.1 191.853 186.1ZM196.374 186V178.5H197.234V186H196.374ZM200.695 188.09H199.735L200.825 185.74L198.635 181H199.585L201.305 184.8L203.015 181H203.975L200.695 188.09ZM205.915 185.78L204.885 187.43H204.315L204.985 186C204.712 185.867 204.575 185.643 204.575 185.33C204.575 185.13 204.648 184.957 204.795 184.81C204.942 184.657 205.115 184.58 205.315 184.58C205.515 184.58 205.688 184.657 205.835 184.81C205.982 184.957 206.055 185.13 206.055 185.33C206.055 185.477 206.008 185.627 205.915 185.78ZM215.096 185.17V186H210.496V185.66C210.496 185.413 210.533 185.18 210.606 184.96C210.686 184.733 210.773 184.543 210.866 184.39C210.959 184.237 211.106 184.067 211.306 183.88C211.506 183.687 211.663 183.547 211.776 183.46C211.889 183.367 212.079 183.227 212.346 183.04C212.613 182.847 212.789 182.72 212.876 182.66C213.349 182.313 213.676 182.023 213.856 181.79C214.043 181.55 214.136 181.237 214.136 180.85C214.136 180.477 214.016 180.18 213.776 179.96C213.536 179.733 213.223 179.62 212.836 179.62C212.429 179.62 212.083 179.743 211.796 179.99C211.509 180.237 211.366 180.58 211.366 181.02H210.486C210.486 180.353 210.706 179.813 211.146 179.4C211.593 178.987 212.153 178.78 212.826 178.78C213.453 178.78 213.973 178.96 214.386 179.32C214.806 179.68 215.016 180.193 215.016 180.86C215.016 181.367 214.893 181.8 214.646 182.16C214.399 182.513 213.976 182.907 213.376 183.34C213.263 183.42 213.103 183.533 212.896 183.68C212.689 183.82 212.529 183.933 212.416 184.02C212.303 184.107 212.176 184.213 212.036 184.34C211.903 184.46 211.796 184.59 211.716 184.73C211.643 184.863 211.589 185.01 211.556 185.17H215.096ZM219.192 186.1C218.452 186.1 217.849 185.853 217.382 185.36C216.915 184.86 216.682 184.217 216.682 183.43V181.45C216.682 180.663 216.915 180.023 217.382 179.53C217.855 179.03 218.459 178.78 219.192 178.78C219.925 178.78 220.529 179.03 221.002 179.53C221.475 180.03 221.712 180.67 221.712 181.45V183.43C221.712 184.217 221.475 184.86 221.002 185.36C220.529 185.853 219.925 186.1 219.192 186.1ZM219.192 185.26C219.685 185.26 220.085 185.097 220.392 184.77C220.699 184.443 220.852 183.997 220.852 183.43V181.45C220.852 180.883 220.699 180.437 220.392 180.11C220.085 179.783 219.685 179.62 219.192 179.62C218.705 179.62 218.309 179.783 218.002 180.11C217.695 180.437 217.542 180.883 217.542 181.45V183.43C217.542 183.997 217.695 184.443 218.002 184.77C218.309 185.097 218.705 185.26 219.192 185.26ZM227.903 185.17V186H223.303V185.66C223.303 185.413 223.339 185.18 223.413 184.96C223.493 184.733 223.579 184.543 223.673 184.39C223.766 184.237 223.913 184.067 224.113 183.88C224.313 183.687 224.469 183.547 224.583 183.46C224.696 183.367 224.886 183.227 225.153 183.04C225.419 182.847 225.596 182.72 225.683 182.66C226.156 182.313 226.483 182.023 226.663 181.79C226.849 181.55 226.943 181.237 226.943 180.85C226.943 180.477 226.823 180.18 226.583 179.96C226.343 179.733 226.029 179.62 225.643 179.62C225.236 179.62 224.889 179.743 224.603 179.99C224.316 180.237 224.173 180.58 224.173 181.02H223.293C223.293 180.353 223.513 179.813 223.953 179.4C224.399 178.987 224.959 178.78 225.633 178.78C226.259 178.78 226.779 178.96 227.193 179.32C227.613 179.68 227.823 180.193 227.823 180.86C227.823 181.367 227.699 181.8 227.453 182.16C227.206 182.513 226.783 182.907 226.183 183.34C226.069 183.42 225.909 183.533 225.703 183.68C225.496 183.82 225.336 183.933 225.223 184.02C225.109 184.107 224.983 184.213 224.843 184.34C224.709 184.46 224.603 184.59 224.523 184.73C224.449 184.863 224.396 185.01 224.363 185.17H227.903ZM233.979 185.17V186H229.379V185.66C229.379 185.413 229.415 185.18 229.489 184.96C229.569 184.733 229.655 184.543 229.749 184.39C229.842 184.237 229.989 184.067 230.189 183.88C230.389 183.687 230.545 183.547 230.659 183.46C230.772 183.367 230.962 183.227 231.229 183.04C231.495 182.847 231.672 182.72 231.759 182.66C232.232 182.313 232.559 182.023 232.739 181.79C232.925 181.55 233.019 181.237 233.019 180.85C233.019 180.477 232.899 180.18 232.659 179.96C232.419 179.733 232.105 179.62 231.719 179.62C231.312 179.62 230.965 179.743 230.679 179.99C230.392 180.237 230.249 180.58 230.249 181.02H229.369C229.369 180.353 229.589 179.813 230.029 179.4C230.475 178.987 231.035 178.78 231.709 178.78C232.335 178.78 232.855 178.96 233.269 179.32C233.689 179.68 233.899 180.193 233.899 180.86C233.899 181.367 233.775 181.8 233.529 182.16C233.282 182.513 232.859 182.907 232.259 183.34C232.145 183.42 231.985 183.533 231.779 183.68C231.572 183.82 231.412 183.933 231.299 184.02C231.185 184.107 231.059 184.213 230.919 184.34C230.785 184.46 230.679 184.59 230.599 184.73C230.525 184.863 230.472 185.01 230.439 185.17H233.979Z" fill="#5A5A5A"/>
        <line x1="10.5" y1="-2.18557e-08" x2="10.5" y2="30" stroke="black"/>
        <line x1="10.5" y1="63" x2="10.5" y2="93" stroke="black"/>
        <line x1="10.5" y1="128" x2="10.5" y2="158" stroke="black"/>
        <rect y="165" width="20" height="20" rx="5" fill="#5A5A5A"/>
        <path d="M48.48 115.144C47.616 115.144 46.908 114.908 46.356 114.436C45.812 113.964 45.532 113.392 45.516 112.72H46.632C46.68 113.16 46.884 113.5 47.244 113.74C47.612 113.98 48.02 114.1 48.468 114.1C48.932 114.1 49.316 113.984 49.62 113.752C49.924 113.52 50.076 113.212 50.076 112.828C50.076 112.18 49.672 111.704 48.864 111.4L47.688 110.968C47.016 110.736 46.52 110.428 46.2 110.044C45.888 109.66 45.728 109.168 45.72 108.568C45.72 107.888 45.96 107.348 46.44 106.948C46.928 106.54 47.552 106.336 48.312 106.336C49.112 106.336 49.744 106.568 50.208 107.032C50.68 107.488 50.944 108.024 51 108.64H49.896C49.792 108.216 49.592 107.9 49.296 107.692C49.008 107.484 48.672 107.38 48.288 107.38C47.872 107.38 47.524 107.484 47.244 107.692C46.972 107.9 46.836 108.18 46.836 108.532C46.836 108.884 46.932 109.164 47.124 109.372C47.316 109.58 47.628 109.76 48.06 109.912L49.152 110.308C49.824 110.548 50.332 110.868 50.676 111.268C51.02 111.66 51.192 112.168 51.192 112.792C51.192 113.504 50.94 114.076 50.436 114.508C49.932 114.932 49.28 115.144 48.48 115.144ZM53.4663 115V106.48H54.5823V110.116H59.2503V106.48H60.3663V115H59.2503V111.16H54.5823V115H53.4663ZM63.2186 115V106.48H64.3346V115H63.2186ZM71.9096 107.248C72.4536 107.76 72.7256 108.408 72.7256 109.192C72.7256 109.976 72.4536 110.624 71.9096 111.136C71.3736 111.64 70.6696 111.892 69.7976 111.892H68.3096V115H67.1936V106.48H69.7976C70.6696 106.48 71.3736 106.736 71.9096 107.248ZM71.1296 110.392C71.4576 110.08 71.6216 109.68 71.6216 109.192C71.6216 108.704 71.4576 108.304 71.1296 107.992C70.8096 107.68 70.3656 107.524 69.7976 107.524H68.3096V110.86H69.7976C70.3656 110.86 70.8096 110.704 71.1296 110.392ZM79.5409 107.248C80.0849 107.76 80.3569 108.408 80.3569 109.192C80.3569 109.976 80.0849 110.624 79.5409 111.136C79.0049 111.64 78.3009 111.892 77.4289 111.892H75.9409V115H74.8249V106.48H77.4289C78.3009 106.48 79.0049 106.736 79.5409 107.248ZM78.7609 110.392C79.0889 110.08 79.2529 109.68 79.2529 109.192C79.2529 108.704 79.0889 108.304 78.7609 107.992C78.4409 107.68 77.9969 107.524 77.4289 107.524H75.9409V110.86H77.4289C77.9969 110.86 78.4409 110.704 78.7609 110.392ZM82.4561 115V106.48H87.4241V107.536H83.5721V110.116H86.7041V111.172H83.5721V113.944H87.4241V115H82.4561ZM89.7358 115V106.48H92.1838C93.4878 106.48 94.5678 106.884 95.4238 107.692C96.2878 108.5 96.7198 109.516 96.7198 110.74C96.7198 111.964 96.2878 112.98 95.4238 113.788C94.5678 114.596 93.4878 115 92.1838 115H89.7358ZM90.8518 113.956H92.1838C93.1998 113.956 94.0198 113.656 94.6438 113.056C95.2758 112.448 95.5918 111.676 95.5918 110.74C95.5918 109.804 95.2758 109.036 94.6438 108.436C94.0198 107.828 93.1998 107.524 92.1838 107.524H90.8518V113.956Z" fill="black"/>
        <rect y="35" width="20" height="20" rx="5" fill="#A14323"/>
        <path d="M13.7125 41.2125C13.8886 41.0448 14.1229 40.9522 14.366 40.954C14.6091 40.9558 14.842 41.0521 15.0156 41.2223C15.1891 41.3926 15.2897 41.6237 15.2961 41.8667C15.3025 42.1097 15.2143 42.3458 15.05 42.525L10.0625 48.7625C9.97674 48.8549 9.87323 48.929 9.75816 48.9804C9.6431 49.0319 9.51884 49.0596 9.39281 49.062C9.26679 49.0643 9.14159 49.0412 9.02469 48.994C8.9078 48.9469 8.80162 48.8766 8.7125 48.7875L5.405 45.48C5.31289 45.3942 5.23901 45.2907 5.18777 45.1757C5.13653 45.0607 5.10898 44.9365 5.10676 44.8106C5.10454 44.6848 5.12769 44.5597 5.17485 44.443C5.222 44.3263 5.29218 44.2202 5.3812 44.1312C5.47022 44.0422 5.57627 43.972 5.693 43.9248C5.80974 43.8777 5.93477 43.8545 6.06065 43.8567C6.18653 43.859 6.31067 43.8865 6.42567 43.9378C6.54067 43.989 6.64417 44.0629 6.73 44.155L9.3475 46.7712L13.6887 41.24C13.6966 41.2304 13.7049 41.2212 13.7137 41.2125H13.7125Z" fill="white"/>
        <path d="M49.944 42.088C50.88 42.088 51.66 41.764 52.284 41.116C52.916 40.468 53.232 39.676 53.232 38.74C53.232 37.804 52.916 37.012 52.284 36.364C51.66 35.716 50.88 35.392 49.944 35.392C49.016 35.392 48.236 35.716 47.604 36.364C46.98 37.012 46.668 37.804 46.668 38.74C46.668 39.676 46.98 40.468 47.604 41.116C48.236 41.764 49.016 42.088 49.944 42.088ZM49.944 43.144C48.72 43.144 47.68 42.72 46.824 41.872C45.968 41.016 45.54 39.972 45.54 38.74C45.54 37.508 45.968 36.468 46.824 35.62C47.68 34.764 48.72 34.336 49.944 34.336C51.176 34.336 52.216 34.764 53.064 35.62C53.92 36.468 54.348 37.508 54.348 38.74C54.348 39.972 53.92 41.016 53.064 41.872C52.216 42.72 51.176 43.144 49.944 43.144ZM56.6303 43V34.48H59.5343C60.3183 34.48 60.9383 34.696 61.3943 35.128C61.8503 35.552 62.0783 36.12 62.0783 36.832C62.0783 37.456 61.8903 37.968 61.5143 38.368C61.1463 38.768 60.6303 39.016 59.9663 39.112L63.2543 43H61.8503L58.5743 39.124H57.7463V43H56.6303ZM57.7463 38.128H59.4023C59.8983 38.128 60.2823 38.02 60.5543 37.804C60.8263 37.58 60.9623 37.256 60.9623 36.832C60.9623 36.408 60.8263 36.084 60.5543 35.86C60.2823 35.628 59.8983 35.512 59.4023 35.512H57.7463V38.128ZM64.8475 43V34.48H67.2955C68.5995 34.48 69.6795 34.884 70.5355 35.692C71.3995 36.5 71.8315 37.516 71.8315 38.74C71.8315 39.964 71.3995 40.98 70.5355 41.788C69.6795 42.596 68.5995 43 67.2955 43H64.8475ZM65.9635 41.956H67.2955C68.3115 41.956 69.1315 41.656 69.7555 41.056C70.3875 40.448 70.7035 39.676 70.7035 38.74C70.7035 37.804 70.3875 37.036 69.7555 36.436C69.1315 35.828 68.3115 35.524 67.2955 35.524H65.9635V41.956ZM74.096 43V34.48H79.064V35.536H75.212V38.116H78.344V39.172H75.212V41.944H79.064V43H74.096ZM81.3757 43V34.48H84.2797C85.0637 34.48 85.6837 34.696 86.1397 35.128C86.5957 35.552 86.8237 36.12 86.8237 36.832C86.8237 37.456 86.6357 37.968 86.2597 38.368C85.8917 38.768 85.3757 39.016 84.7117 39.112L87.9997 43H86.5957L83.3197 39.124H82.4917V43H81.3757ZM82.4917 38.128H84.1477C84.6437 38.128 85.0277 38.02 85.2997 37.804C85.5717 37.58 85.7077 37.256 85.7077 36.832C85.7077 36.408 85.5717 36.084 85.2997 35.86C85.0277 35.628 84.6437 35.512 84.1477 35.512H82.4917V38.128ZM89.5928 43V34.48H94.5608V35.536H90.7088V38.116H93.8408V39.172H90.7088V41.944H94.5608V43H89.5928ZM96.8725 43V34.48H99.3205C100.625 34.48 101.705 34.884 102.561 35.692C103.425 36.5 103.857 37.516 103.857 38.74C103.857 39.964 103.425 40.98 102.561 41.788C101.705 42.596 100.625 43 99.3205 43H96.8725ZM97.9885 41.956H99.3205C100.337 41.956 101.157 41.656 101.781 41.056C102.413 40.448 102.729 39.676 102.729 38.74C102.729 37.804 102.413 37.036 101.781 36.436C101.157 35.828 100.337 35.524 99.3205 35.524H97.9885V41.956Z" fill="black"/>
        <path d="M48.03 55.1C47.2767 55.1 46.65 54.85 46.15 54.35C45.6567 53.8433 45.41 53.2267 45.41 52.5C45.41 51.7733 45.6567 51.16 46.15 50.66C46.65 50.1533 47.2767 49.9 48.03 49.9C48.7767 49.9 49.3967 50.1533 49.89 50.66C50.39 51.16 50.64 51.7733 50.64 52.5C50.64 53.2267 50.39 53.8433 49.89 54.35C49.3967 54.85 48.7767 55.1 48.03 55.1ZM46.77 53.78C47.0967 54.1267 47.5167 54.3 48.03 54.3C48.5433 54.3 48.96 54.1267 49.28 53.78C49.6 53.4333 49.76 53.0067 49.76 52.5C49.76 51.9933 49.6 51.5667 49.28 51.22C48.96 50.8733 48.5433 50.7 48.03 50.7C47.5167 50.7 47.0967 50.8733 46.77 51.22C46.45 51.5667 46.29 51.9933 46.29 52.5C46.29 53.0067 46.45 53.4333 46.77 53.78ZM52.3745 55V50H53.2345V50.97C53.3278 50.6633 53.5078 50.4167 53.7745 50.23C54.0478 50.0433 54.3345 49.95 54.6345 49.95C54.7811 49.95 54.9111 49.9633 55.0245 49.99V50.88C54.9045 50.8267 54.7478 50.8 54.5545 50.8C54.2078 50.8 53.9011 50.95 53.6345 51.25C53.3678 51.55 53.2345 51.9733 53.2345 52.52V55H52.3745ZM58.4305 55.1C57.7372 55.1 57.1539 54.8467 56.6805 54.34C56.2139 53.8333 55.9805 53.22 55.9805 52.5C55.9805 51.78 56.2139 51.1667 56.6805 50.66C57.1539 50.1533 57.7372 49.9 58.4305 49.9C58.7972 49.9 59.1372 49.9833 59.4505 50.15C59.7705 50.31 60.0172 50.5167 60.1905 50.77V47.5H61.0505V55H60.1905V54.23C60.0172 54.4833 59.7705 54.6933 59.4505 54.86C59.1372 55.02 58.7972 55.1 58.4305 55.1ZM58.5605 54.31C59.0539 54.31 59.4605 54.1367 59.7805 53.79C60.1005 53.4433 60.2605 53.0133 60.2605 52.5C60.2605 51.9867 60.1005 51.5567 59.7805 51.21C59.4605 50.8633 59.0539 50.69 58.5605 50.69C58.0605 50.69 57.6505 50.8633 57.3305 51.21C57.0105 51.5567 56.8505 51.9867 56.8505 52.5C56.8505 53.0133 57.0105 53.4433 57.3305 53.79C57.6505 54.1367 58.0605 54.31 58.5605 54.31ZM65.2994 55.1C64.5727 55.1 63.9694 54.8533 63.4894 54.36C63.016 53.8667 62.7794 53.2467 62.7794 52.5C62.7794 51.7467 63.0094 51.1267 63.4694 50.64C63.936 50.1467 64.5527 49.9 65.3194 49.9C66.0927 49.9 66.6994 50.1733 67.1394 50.72C67.5794 51.2667 67.7727 51.9367 67.7194 52.73H63.6494C63.6627 53.1833 63.8294 53.5633 64.1494 53.87C64.4694 54.17 64.856 54.32 65.3094 54.32C65.9894 54.32 66.4727 54.04 66.7594 53.48H67.6394C67.5127 53.9467 67.2427 54.3333 66.8294 54.64C66.416 54.9467 65.906 55.1 65.2994 55.1ZM66.2794 51.02C66.006 50.78 65.676 50.66 65.2894 50.66C64.9027 50.66 64.556 50.7767 64.2494 51.01C63.9494 51.2433 63.7627 51.59 63.6894 52.05H66.8094C66.7294 51.5967 66.5527 51.2533 66.2794 51.02ZM69.4604 55V50H70.3204V50.97C70.4137 50.6633 70.5937 50.4167 70.8604 50.23C71.1337 50.0433 71.4204 49.95 71.7204 49.95C71.8671 49.95 71.9971 49.9633 72.1104 49.99V50.88C71.9904 50.8267 71.8337 50.8 71.6404 50.8C71.2937 50.8 70.9871 50.95 70.7204 51.25C70.4537 51.55 70.3204 51.9733 70.3204 52.52V55H69.4604ZM77.1407 57.09H76.2807V50H77.1407V50.77C77.314 50.5167 77.5574 50.31 77.8707 50.15C78.1907 49.9833 78.534 49.9 78.9007 49.9C79.594 49.9 80.174 50.1533 80.6407 50.66C81.114 51.1667 81.3507 51.78 81.3507 52.5C81.3507 53.22 81.114 53.8333 80.6407 54.34C80.174 54.8467 79.594 55.1 78.9007 55.1C78.534 55.1 78.1907 55.02 77.8707 54.86C77.5574 54.6933 77.314 54.4833 77.1407 54.23V57.09ZM77.5507 53.79C77.8707 54.1367 78.2774 54.31 78.7707 54.31C79.264 54.31 79.6707 54.1367 79.9907 53.79C80.3107 53.4433 80.4707 53.0133 80.4707 52.5C80.4707 51.9867 80.3107 51.5567 79.9907 51.21C79.6707 50.8633 79.264 50.69 78.7707 50.69C78.2774 50.69 77.8707 50.8633 77.5507 51.21C77.2307 51.5567 77.0707 51.9867 77.0707 52.5C77.0707 53.0133 77.2307 53.4433 77.5507 53.79ZM83.0893 55V47.5H83.9493V55H83.0893ZM88.1395 55.1C87.4462 55.1 86.8629 54.8467 86.3895 54.34C85.9229 53.8333 85.6895 53.22 85.6895 52.5C85.6895 51.78 85.9229 51.1667 86.3895 50.66C86.8629 50.1533 87.4462 49.9 88.1395 49.9C88.5062 49.9 88.8462 49.9833 89.1595 50.15C89.4795 50.31 89.7262 50.5167 89.8995 50.77V50H90.7595V55H89.8995V54.23C89.7262 54.4833 89.4795 54.6933 89.1595 54.86C88.8462 55.02 88.5062 55.1 88.1395 55.1ZM88.2695 54.31C88.7629 54.31 89.1695 54.1367 89.4895 53.79C89.8095 53.4433 89.9695 53.0133 89.9695 52.5C89.9695 51.9867 89.8095 51.5567 89.4895 51.21C89.1695 50.8633 88.7629 50.69 88.2695 50.69C87.7695 50.69 87.3595 50.8633 87.0395 51.21C86.7195 51.5567 86.5595 51.9867 86.5595 52.5C86.5595 53.0133 86.7195 53.4433 87.0395 53.79C87.3595 54.1367 87.7695 54.31 88.2695 54.31ZM95.0984 55.1C94.345 55.1 93.7217 54.85 93.2284 54.35C92.735 53.8433 92.4884 53.2267 92.4884 52.5C92.4884 51.7733 92.735 51.16 93.2284 50.66C93.7217 50.1533 94.345 49.9 95.0984 49.9C95.7184 49.9 96.255 50.0733 96.7084 50.42C97.1617 50.76 97.465 51.2067 97.6184 51.76H96.6984C96.5784 51.4333 96.3784 51.1733 96.0984 50.98C95.8184 50.7867 95.485 50.69 95.0984 50.69C94.585 50.69 94.165 50.8633 93.8384 51.21C93.5184 51.5567 93.3584 51.9867 93.3584 52.5C93.3584 53.0133 93.5184 53.4433 93.8384 53.79C94.165 54.1367 94.585 54.31 95.0984 54.31C95.485 54.31 95.8184 54.2133 96.0984 54.02C96.3784 53.8267 96.5784 53.5667 96.6984 53.24H97.6184C97.4717 53.7933 97.1717 54.2433 96.7184 54.59C96.265 54.93 95.725 55.1 95.0984 55.1ZM101.387 55.1C100.661 55.1 100.057 54.8533 99.5773 54.36C99.1039 53.8667 98.8673 53.2467 98.8673 52.5C98.8673 51.7467 99.0973 51.1267 99.5573 50.64C100.024 50.1467 100.641 49.9 101.407 49.9C102.181 49.9 102.787 50.1733 103.227 50.72C103.667 51.2667 103.861 51.9367 103.807 52.73H99.7373C99.7506 53.1833 99.9173 53.5633 100.237 53.87C100.557 54.17 100.944 54.32 101.397 54.32C102.077 54.32 102.561 54.04 102.847 53.48H103.727C103.601 53.9467 103.331 54.3333 102.917 54.64C102.504 54.9467 101.994 55.1 101.387 55.1ZM102.367 51.02C102.094 50.78 101.764 50.66 101.377 50.66C100.991 50.66 100.644 50.7767 100.337 51.01C100.037 51.2433 99.8506 51.59 99.7773 52.05H102.897C102.817 51.5967 102.641 51.2533 102.367 51.02ZM107.608 55.1C106.915 55.1 106.332 54.8467 105.858 54.34C105.392 53.8333 105.158 53.22 105.158 52.5C105.158 51.78 105.392 51.1667 105.858 50.66C106.332 50.1533 106.915 49.9 107.608 49.9C107.975 49.9 108.315 49.9833 108.628 50.15C108.948 50.31 109.195 50.5167 109.368 50.77V47.5H110.228V55H109.368V54.23C109.195 54.4833 108.948 54.6933 108.628 54.86C108.315 55.02 107.975 55.1 107.608 55.1ZM107.738 54.31C108.232 54.31 108.638 54.1367 108.958 53.79C109.278 53.4433 109.438 53.0133 109.438 52.5C109.438 51.9867 109.278 51.5567 108.958 51.21C108.638 50.8633 108.232 50.69 107.738 50.69C107.238 50.69 106.828 50.8633 106.508 51.21C106.188 51.5567 106.028 51.9867 106.028 52.5C106.028 53.0133 106.188 53.4433 106.508 53.79C106.828 54.1367 107.238 54.31 107.738 54.31ZM117.479 55.1C116.726 55.1 116.099 54.85 115.599 54.35C115.106 53.8433 114.859 53.2267 114.859 52.5C114.859 51.7733 115.106 51.16 115.599 50.66C116.099 50.1533 116.726 49.9 117.479 49.9C118.226 49.9 118.846 50.1533 119.339 50.66C119.839 51.16 120.089 51.7733 120.089 52.5C120.089 53.2267 119.839 53.8433 119.339 54.35C118.846 54.85 118.226 55.1 117.479 55.1ZM116.219 53.78C116.546 54.1267 116.966 54.3 117.479 54.3C117.993 54.3 118.409 54.1267 118.729 53.78C119.049 53.4333 119.209 53.0067 119.209 52.5C119.209 51.9933 119.049 51.5667 118.729 51.22C118.409 50.8733 117.993 50.7 117.479 50.7C116.966 50.7 116.546 50.8733 116.219 51.22C115.899 51.5667 115.739 51.9933 115.739 52.5C115.739 53.0067 115.899 53.4333 116.219 53.78ZM121.824 55V50H122.684V50.77C123.024 50.19 123.554 49.9 124.274 49.9C124.84 49.9 125.297 50.0833 125.644 50.45C125.99 50.8167 126.164 51.3067 126.164 51.92V55H125.314V52.05C125.314 51.63 125.207 51.3 124.994 51.06C124.78 50.8133 124.494 50.69 124.134 50.69C123.72 50.69 123.374 50.8533 123.094 51.18C122.82 51.5067 122.684 51.9533 122.684 52.52V55H121.824ZM131.884 55H130.924L134.234 48.74H130.604V47.9H135.264V48.62L131.884 55ZM140.832 55.12C140.225 55.12 139.722 54.9433 139.322 54.59C138.922 54.23 138.722 53.7333 138.722 53.1H139.642C139.642 53.46 139.755 53.7433 139.982 53.95C140.215 54.1567 140.495 54.26 140.822 54.26C141.162 54.26 141.442 54.1533 141.662 53.94C141.882 53.7267 141.992 53.3933 141.992 52.94V47.9H142.912V53.04C142.912 53.74 142.715 54.2633 142.322 54.61C141.929 54.95 141.432 55.12 140.832 55.12ZM146.787 55.1C146.24 55.1 145.797 54.9167 145.457 54.55C145.117 54.1767 144.947 53.6833 144.947 53.07V50H145.807V52.94C145.807 53.36 145.907 53.6933 146.107 53.94C146.314 54.1867 146.59 54.31 146.937 54.31C147.337 54.31 147.667 54.1467 147.927 53.82C148.194 53.4867 148.327 53.04 148.327 52.48V50H149.187V55H148.327V54.23C148 54.81 147.487 55.1 146.787 55.1ZM151.308 55V47.5H152.168V55H151.308ZM155.628 57.09H154.668L155.758 54.74L153.568 50H154.518L156.238 53.8L157.948 50H158.908L155.628 57.09ZM160.849 54.78L159.819 56.43H159.249L159.919 55C159.645 54.8667 159.509 54.6433 159.509 54.33C159.509 54.13 159.582 53.9567 159.729 53.81C159.875 53.6567 160.049 53.58 160.249 53.58C160.449 53.58 160.622 53.6567 160.769 53.81C160.915 53.9567 160.989 54.13 160.989 54.33C160.989 54.4767 160.942 54.6267 160.849 54.78ZM170.029 54.17V55H165.429V54.66C165.429 54.4133 165.466 54.18 165.539 53.96C165.619 53.7333 165.706 53.5433 165.799 53.39C165.893 53.2367 166.039 53.0667 166.239 52.88C166.439 52.6867 166.596 52.5467 166.709 52.46C166.823 52.3667 167.013 52.2267 167.279 52.04C167.546 51.8467 167.723 51.72 167.809 51.66C168.283 51.3133 168.609 51.0233 168.789 50.79C168.976 50.55 169.069 50.2367 169.069 49.85C169.069 49.4767 168.949 49.18 168.709 48.96C168.469 48.7333 168.156 48.62 167.769 48.62C167.363 48.62 167.016 48.7433 166.729 48.99C166.443 49.2367 166.299 49.58 166.299 50.02H165.419C165.419 49.3533 165.639 48.8133 166.079 48.4C166.526 47.9867 167.086 47.78 167.759 47.78C168.386 47.78 168.906 47.96 169.319 48.32C169.739 48.68 169.949 49.1933 169.949 49.86C169.949 50.3667 169.826 50.8 169.579 51.16C169.333 51.5133 168.909 51.9067 168.309 52.34C168.196 52.42 168.036 52.5333 167.829 52.68C167.623 52.82 167.463 52.9333 167.349 53.02C167.236 53.1067 167.109 53.2133 166.969 53.34C166.836 53.46 166.729 53.59 166.649 53.73C166.576 53.8633 166.523 54.01 166.489 54.17H170.029ZM174.126 55.1C173.386 55.1 172.782 54.8533 172.316 54.36C171.849 53.86 171.616 53.2167 171.616 52.43V50.45C171.616 49.6633 171.849 49.0233 172.316 48.53C172.789 48.03 173.392 47.78 174.126 47.78C174.859 47.78 175.462 48.03 175.936 48.53C176.409 49.03 176.646 49.67 176.646 50.45V52.43C176.646 53.2167 176.409 53.86 175.936 54.36C175.462 54.8533 174.859 55.1 174.126 55.1ZM174.126 54.26C174.619 54.26 175.019 54.0967 175.326 53.77C175.632 53.4433 175.786 52.9967 175.786 52.43V50.45C175.786 49.8833 175.632 49.4367 175.326 49.11C175.019 48.7833 174.619 48.62 174.126 48.62C173.639 48.62 173.242 48.7833 172.936 49.11C172.629 49.4367 172.476 49.8833 172.476 50.45V52.43C172.476 52.9967 172.629 53.4433 172.936 53.77C173.242 54.0967 173.639 54.26 174.126 54.26ZM182.836 54.17V55H178.236V54.66C178.236 54.4133 178.273 54.18 178.346 53.96C178.426 53.7333 178.513 53.5433 178.606 53.39C178.699 53.2367 178.846 53.0667 179.046 52.88C179.246 52.6867 179.403 52.5467 179.516 52.46C179.629 52.3667 179.819 52.2267 180.086 52.04C180.353 51.8467 180.529 51.72 180.616 51.66C181.089 51.3133 181.416 51.0233 181.596 50.79C181.783 50.55 181.876 50.2367 181.876 49.85C181.876 49.4767 181.756 49.18 181.516 48.96C181.276 48.7333 180.963 48.62 180.576 48.62C180.169 48.62 179.823 48.7433 179.536 48.99C179.249 49.2367 179.106 49.58 179.106 50.02H178.226C178.226 49.3533 178.446 48.8133 178.886 48.4C179.333 47.9867 179.893 47.78 180.566 47.78C181.193 47.78 181.713 47.96 182.126 48.32C182.546 48.68 182.756 49.1933 182.756 49.86C182.756 50.3667 182.633 50.8 182.386 51.16C182.139 51.5133 181.716 51.9067 181.116 52.34C181.003 52.42 180.843 52.5333 180.636 52.68C180.429 52.82 180.269 52.9333 180.156 53.02C180.043 53.1067 179.916 53.2133 179.776 53.34C179.643 53.46 179.536 53.59 179.456 53.73C179.383 53.8633 179.329 54.01 179.296 54.17H182.836ZM188.912 54.17V55H184.312V54.66C184.312 54.4133 184.349 54.18 184.422 53.96C184.502 53.7333 184.589 53.5433 184.682 53.39C184.776 53.2367 184.922 53.0667 185.122 52.88C185.322 52.6867 185.479 52.5467 185.592 52.46C185.706 52.3667 185.896 52.2267 186.162 52.04C186.429 51.8467 186.606 51.72 186.692 51.66C187.166 51.3133 187.492 51.0233 187.672 50.79C187.859 50.55 187.952 50.2367 187.952 49.85C187.952 49.4767 187.832 49.18 187.592 48.96C187.352 48.7333 187.039 48.62 186.652 48.62C186.246 48.62 185.899 48.7433 185.612 48.99C185.326 49.2367 185.182 49.58 185.182 50.02H184.302C184.302 49.3533 184.522 48.8133 184.962 48.4C185.409 47.9867 185.969 47.78 186.642 47.78C187.269 47.78 187.789 47.96 188.202 48.32C188.622 48.68 188.832 49.1933 188.832 49.86C188.832 50.3667 188.709 50.8 188.462 51.16C188.216 51.5133 187.792 51.9067 187.192 52.34C187.079 52.42 186.919 52.5333 186.712 52.68C186.506 52.82 186.346 52.9333 186.232 53.02C186.119 53.1067 185.992 53.2133 185.852 53.34C185.719 53.46 185.612 53.59 185.532 53.73C185.459 53.8633 185.406 54.01 185.372 54.17H188.912Z" fill="#5A5A5A"/>
        <rect y="100" width="20" height="20" rx="5" fill="#5A5A5A"/>
        </svg>