<svg width="235" height="188" viewBox="0 0 235 188" fill="none" xmlns="http://www.w3.org/2000/svg">
<path d="M45.128 173V164.48H47.576C48.88 164.48 49.96 164.884 50.816 165.692C51.68 166.5 52.112 167.516 52.112 168.74C52.112 169.964 51.68 170.98 50.816 171.788C49.96 172.596 48.88 173 47.576 173H45.128ZM46.244 171.956H47.576C48.592 171.956 49.412 171.656 50.036 171.056C50.668 170.448 50.984 169.676 50.984 168.74C50.984 167.804 50.668 167.036 50.036 166.436C49.412 165.828 48.592 165.524 47.576 165.524H46.244V171.956ZM54.3764 173V164.48H59.3444V165.536H55.4924V168.116H58.6244V169.172H55.4924V171.944H59.3444V173H54.3764ZM61.6561 173V164.48H62.7721V171.944H66.8881V173H61.6561ZM68.8303 173V164.48H69.9463V173H68.8303ZM75.4093 173L71.7733 164.48H73.0093L75.8773 171.26L78.7573 164.48H79.9693L76.3453 173H75.4093ZM81.8194 173V164.48H86.7874V165.536H82.9354V168.116H86.0674V169.172H82.9354V171.944H86.7874V173H81.8194ZM89.0991 173V164.48H92.0031C92.7871 164.48 93.4071 164.696 93.8631 165.128C94.3191 165.552 94.5471 166.12 94.5471 166.832C94.5471 167.456 94.3591 167.968 93.9831 168.368C93.6151 168.768 93.0991 169.016 92.4351 169.112L95.7231 173H94.3191L91.0431 169.124H90.2151V173H89.0991ZM90.2151 168.128H91.8711C92.3671 168.128 92.7511 168.02 93.0231 167.804C93.2951 167.58 93.4311 167.256 93.4311 166.832C93.4311 166.408 93.2951 166.084 93.0231 165.86C92.7511 165.628 92.3671 165.512 91.8711 165.512H90.2151V168.128ZM97.3163 173V164.48H102.284V165.536H98.4323V168.116H101.564V169.172H98.4323V171.944H102.284V173H97.3163ZM104.596 173V164.48H107.044C108.348 164.48 109.428 164.884 110.284 165.692C111.148 166.5 111.58 167.516 111.58 168.74C111.58 169.964 111.148 170.98 110.284 171.788C109.428 172.596 108.348 173 107.044 173H104.596ZM105.712 171.956H107.044C108.06 171.956 108.88 171.656 109.504 171.056C110.136 170.448 110.452 169.676 110.452 168.74C110.452 167.804 110.136 167.036 109.504 166.436C108.88 165.828 108.06 165.524 107.044 165.524H105.712V171.956Z" fill="black"/>
<path d="M48.03 185.1C47.2767 185.1 46.65 184.85 46.15 184.35C45.6567 183.843 45.41 183.227 45.41 182.5C45.41 181.773 45.6567 181.16 46.15 180.66C46.65 180.153 47.2767 179.9 48.03 179.9C48.7767 179.9 49.3967 180.153 49.89 180.66C50.39 181.16 50.64 181.773 50.64 182.5C50.64 183.227 50.39 183.843 49.89 184.35C49.3967 184.85 48.7767 185.1 48.03 185.1ZM46.77 183.78C47.0967 184.127 47.5167 184.3 48.03 184.3C48.5433 184.3 48.96 184.127 49.28 183.78C49.6 183.433 49.76 183.007 49.76 182.5C49.76 181.993 49.6 181.567 49.28 181.22C48.96 180.873 48.5433 180.7 48.03 180.7C47.5167 180.7 47.0967 180.873 46.77 181.22C46.45 181.567 46.29 181.993 46.29 182.5C46.29 183.007 46.45 183.433 46.77 183.78ZM52.3745 185V180H53.2345V180.97C53.3278 180.663 53.5078 180.417 53.7745 180.23C54.0478 180.043 54.3345 179.95 54.6345 179.95C54.7811 179.95 54.9111 179.963 55.0245 179.99V180.88C54.9045 180.827 54.7478 180.8 54.5545 180.8C54.2078 180.8 53.9011 180.95 53.6345 181.25C53.3678 181.55 53.2345 181.973 53.2345 182.52V185H52.3745ZM58.4305 185.1C57.7372 185.1 57.1539 184.847 56.6805 184.34C56.2139 183.833 55.9805 183.22 55.9805 182.5C55.9805 181.78 56.2139 181.167 56.6805 180.66C57.1539 180.153 57.7372 179.9 58.4305 179.9C58.7972 179.9 59.1372 179.983 59.4505 180.15C59.7705 180.31 60.0172 180.517 60.1905 180.77V177.5H61.0505V185H60.1905V184.23C60.0172 184.483 59.7705 184.693 59.4505 184.86C59.1372 185.02 58.7972 185.1 58.4305 185.1ZM58.5605 184.31C59.0539 184.31 59.4605 184.137 59.7805 183.79C60.1005 183.443 60.2605 183.013 60.2605 182.5C60.2605 181.987 60.1005 181.557 59.7805 181.21C59.4605 180.863 59.0539 180.69 58.5605 180.69C58.0605 180.69 57.6505 180.863 57.3305 181.21C57.0105 181.557 56.8505 181.987 56.8505 182.5C56.8505 183.013 57.0105 183.443 57.3305 183.79C57.6505 184.137 58.0605 184.31 58.5605 184.31ZM65.2994 185.1C64.5727 185.1 63.9694 184.853 63.4894 184.36C63.016 183.867 62.7794 183.247 62.7794 182.5C62.7794 181.747 63.0094 181.127 63.4694 180.64C63.936 180.147 64.5527 179.9 65.3194 179.9C66.0927 179.9 66.6994 180.173 67.1394 180.72C67.5794 181.267 67.7727 181.937 67.7194 182.73H63.6494C63.6627 183.183 63.8294 183.563 64.1494 183.87C64.4694 184.17 64.856 184.32 65.3094 184.32C65.9894 184.32 66.4727 184.04 66.7594 183.48H67.6394C67.5127 183.947 67.2427 184.333 66.8294 184.64C66.416 184.947 65.906 185.1 65.2994 185.1ZM66.2794 181.02C66.006 180.78 65.676 180.66 65.2894 180.66C64.9027 180.66 64.556 180.777 64.2494 181.01C63.9494 181.243 63.7627 181.59 63.6894 182.05H66.8094C66.7294 181.597 66.5527 181.253 66.2794 181.02ZM69.4604 185V180H70.3204V180.97C70.4137 180.663 70.5937 180.417 70.8604 180.23C71.1337 180.043 71.4204 179.95 71.7204 179.95C71.8671 179.95 71.9971 179.963 72.1104 179.99V180.88C71.9904 180.827 71.8337 180.8 71.6404 180.8C71.2937 180.8 70.9871 180.95 70.7204 181.25C70.4537 181.55 70.3204 181.973 70.3204 182.52V185H69.4604ZM78.3407 185.1C77.6474 185.1 77.064 184.847 76.5907 184.34C76.124 183.833 75.8907 183.22 75.8907 182.5C75.8907 181.78 76.124 181.167 76.5907 180.66C77.064 180.153 77.6474 179.9 78.3407 179.9C78.7074 179.9 79.0474 179.983 79.3607 180.15C79.6807 180.31 79.9274 180.517 80.1007 180.77V177.5H80.9607V185H80.1007V184.23C79.9274 184.483 79.6807 184.693 79.3607 184.86C79.0474 185.02 78.7074 185.1 78.3407 185.1ZM78.4707 184.31C78.964 184.31 79.3707 184.137 79.6907 183.79C80.0107 183.443 80.1707 183.013 80.1707 182.5C80.1707 181.987 80.0107 181.557 79.6907 181.21C79.3707 180.863 78.964 180.69 78.4707 180.69C77.9707 180.69 77.5607 180.863 77.2407 181.21C76.9207 181.557 76.7607 181.987 76.7607 182.5C76.7607 183.013 76.9207 183.443 77.2407 183.79C77.5607 184.137 77.9707 184.31 78.4707 184.31ZM85.2095 185.1C84.4829 185.1 83.8795 184.853 83.3995 184.36C82.9262 183.867 82.6895 183.247 82.6895 182.5C82.6895 181.747 82.9195 181.127 83.3795 180.64C83.8462 180.147 84.4629 179.9 85.2295 179.9C86.0029 179.9 86.6095 180.173 87.0495 180.72C87.4895 181.267 87.6829 181.937 87.6295 182.73H83.5595C83.5729 183.183 83.7395 183.563 84.0595 183.87C84.3795 184.17 84.7662 184.32 85.2195 184.32C85.8995 184.32 86.3829 184.04 86.6695 183.48H87.5495C87.4229 183.947 87.1529 184.333 86.7395 184.64C86.3262 184.947 85.8162 185.1 85.2095 185.1ZM86.1895 181.02C85.9162 180.78 85.5862 180.66 85.1995 180.66C84.8129 180.66 84.4662 180.777 84.1595 181.01C83.8595 181.243 83.6729 181.59 83.5995 182.05H86.7195C86.6395 181.597 86.4629 181.253 86.1895 181.02ZM89.3705 185V177.5H90.2305V185H89.3705ZM93.2308 178.49C93.1174 178.603 92.9741 178.66 92.8008 178.66C92.6274 178.66 92.4808 178.603 92.3608 178.49C92.2408 178.37 92.1808 178.223 92.1808 178.05C92.1808 177.883 92.2408 177.74 92.3608 177.62C92.4808 177.5 92.6274 177.44 92.8008 177.44C92.9741 177.44 93.1174 177.5 93.2308 177.62C93.3441 177.74 93.4008 177.883 93.4008 178.05C93.4008 178.223 93.3441 178.37 93.2308 178.49ZM92.3608 185V180H93.2208V185H92.3608ZM96.911 185L94.601 180H95.561L97.271 183.79L98.981 180H99.941L97.631 185H96.911ZM103.333 185.1C102.606 185.1 102.003 184.853 101.523 184.36C101.049 183.867 100.813 183.247 100.813 182.5C100.813 181.747 101.043 181.127 101.503 180.64C101.969 180.147 102.586 179.9 103.353 179.9C104.126 179.9 104.733 180.173 105.173 180.72C105.613 181.267 105.806 181.937 105.753 182.73H101.683C101.696 183.183 101.863 183.563 102.183 183.87C102.503 184.17 102.889 184.32 103.343 184.32C104.023 184.32 104.506 184.04 104.793 183.48H105.673C105.546 183.947 105.276 184.333 104.863 184.64C104.449 184.947 103.939 185.1 103.333 185.1ZM104.313 181.02C104.039 180.78 103.709 180.66 103.323 180.66C102.936 180.66 102.589 180.777 102.283 181.01C101.983 181.243 101.796 181.59 101.723 182.05H104.843C104.763 181.597 104.586 181.253 104.313 181.02ZM107.494 185V180H108.354V180.97C108.447 180.663 108.627 180.417 108.894 180.23C109.167 180.043 109.454 179.95 109.754 179.95C109.9 179.95 110.03 179.963 110.144 179.99V180.88C110.024 180.827 109.867 180.8 109.674 180.8C109.327 180.8 109.02 180.95 108.754 181.25C108.487 181.55 108.354 181.973 108.354 182.52V185H107.494ZM113.61 185.1C112.883 185.1 112.28 184.853 111.8 184.36C111.327 183.867 111.09 183.247 111.09 182.5C111.09 181.747 111.32 181.127 111.78 180.64C112.247 180.147 112.863 179.9 113.63 179.9C114.403 179.9 115.01 180.173 115.45 180.72C115.89 181.267 116.083 181.937 116.03 182.73H111.96C111.973 183.183 112.14 183.563 112.46 183.87C112.78 184.17 113.167 184.32 113.62 184.32C114.3 184.32 114.783 184.04 115.07 183.48H115.95C115.823 183.947 115.553 184.333 115.14 184.64C114.727 184.947 114.217 185.1 113.61 185.1ZM114.59 181.02C114.317 180.78 113.987 180.66 113.6 180.66C113.213 180.66 112.867 180.777 112.56 181.01C112.26 181.243 112.073 181.59 112 182.05H115.12C115.04 181.597 114.863 181.253 114.59 181.02ZM119.831 185.1C119.138 185.1 118.554 184.847 118.081 184.34C117.614 183.833 117.381 183.22 117.381 182.5C117.381 181.78 117.614 181.167 118.081 180.66C118.554 180.153 119.138 179.9 119.831 179.9C120.198 179.9 120.538 179.983 120.851 180.15C121.171 180.31 121.418 180.517 121.591 180.77V177.5H122.451V185H121.591V184.23C121.418 184.483 121.171 184.693 120.851 184.86C120.538 185.02 120.198 185.1 119.831 185.1ZM119.961 184.31C120.454 184.31 120.861 184.137 121.181 183.79C121.501 183.443 121.661 183.013 121.661 182.5C121.661 181.987 121.501 181.557 121.181 181.21C120.861 180.863 120.454 180.69 119.961 180.69C119.461 180.69 119.051 180.863 118.731 181.21C118.411 181.557 118.251 181.987 118.251 182.5C118.251 183.013 118.411 183.443 118.731 183.79C119.051 184.137 119.461 184.31 119.961 184.31ZM129.702 185.1C128.949 185.1 128.322 184.85 127.822 184.35C127.329 183.843 127.082 183.227 127.082 182.5C127.082 181.773 127.329 181.16 127.822 180.66C128.322 180.153 128.949 179.9 129.702 179.9C130.449 179.9 131.069 180.153 131.562 180.66C132.062 181.16 132.312 181.773 132.312 182.5C132.312 183.227 132.062 183.843 131.562 184.35C131.069 184.85 130.449 185.1 129.702 185.1ZM128.442 183.78C128.769 184.127 129.189 184.3 129.702 184.3C130.215 184.3 130.632 184.127 130.952 183.78C131.272 183.433 131.432 183.007 131.432 182.5C131.432 181.993 131.272 181.567 130.952 181.22C130.632 180.873 130.215 180.7 129.702 180.7C129.189 180.7 128.769 180.873 128.442 181.22C128.122 181.567 127.962 181.993 127.962 182.5C127.962 183.007 128.122 183.433 128.442 183.78ZM134.046 185V180H134.906V180.77C135.246 180.19 135.776 179.9 136.496 179.9C137.063 179.9 137.52 180.083 137.866 180.45C138.213 180.817 138.386 181.307 138.386 181.92V185H137.536V182.05C137.536 181.63 137.43 181.3 137.216 181.06C137.003 180.813 136.716 180.69 136.356 180.69C135.943 180.69 135.596 180.853 135.316 181.18C135.043 181.507 134.906 181.953 134.906 182.52V185H134.046ZM143.987 185V178.75H142.617L143.317 177.9H144.847V185H143.987ZM151.379 184.17V185H146.779V184.66C146.779 184.413 146.816 184.18 146.889 183.96C146.969 183.733 147.056 183.543 147.149 183.39C147.242 183.237 147.389 183.067 147.589 182.88C147.789 182.687 147.946 182.547 148.059 182.46C148.172 182.367 148.362 182.227 148.629 182.04C148.896 181.847 149.072 181.72 149.159 181.66C149.632 181.313 149.959 181.023 150.139 180.79C150.326 180.55 150.419 180.237 150.419 179.85C150.419 179.477 150.299 179.18 150.059 178.96C149.819 178.733 149.506 178.62 149.119 178.62C148.712 178.62 148.366 178.743 148.079 178.99C147.792 179.237 147.649 179.58 147.649 180.02H146.769C146.769 179.353 146.989 178.813 147.429 178.4C147.876 177.987 148.436 177.78 149.109 177.78C149.736 177.78 150.256 177.96 150.669 178.32C151.089 178.68 151.299 179.193 151.299 179.86C151.299 180.367 151.176 180.8 150.929 181.16C150.682 181.513 150.259 181.907 149.659 182.34C149.546 182.42 149.386 182.533 149.179 182.68C148.972 182.82 148.812 182.933 148.699 183.02C148.586 183.107 148.459 183.213 148.319 183.34C148.186 183.46 148.079 183.59 147.999 183.73C147.926 183.863 147.872 184.01 147.839 184.17H151.379ZM157.295 185.12C156.688 185.12 156.185 184.943 155.785 184.59C155.385 184.23 155.185 183.733 155.185 183.1H156.105C156.105 183.46 156.218 183.743 156.445 183.95C156.678 184.157 156.958 184.26 157.285 184.26C157.625 184.26 157.905 184.153 158.125 183.94C158.345 183.727 158.455 183.393 158.455 182.94V177.9H159.375V183.04C159.375 183.74 159.178 184.263 158.785 184.61C158.392 184.95 157.895 185.12 157.295 185.12ZM163.25 185.1C162.703 185.1 162.26 184.917 161.92 184.55C161.58 184.177 161.41 183.683 161.41 183.07V180H162.27V182.94C162.27 183.36 162.37 183.693 162.57 183.94C162.777 184.187 163.053 184.31 163.4 184.31C163.8 184.31 164.13 184.147 164.39 183.82C164.657 183.487 164.79 183.04 164.79 182.48V180H165.65V185H164.79V184.23C164.463 184.81 163.95 185.1 163.25 185.1ZM167.771 185V177.5H168.631V185H167.771ZM172.091 187.09H171.131L172.221 184.74L170.031 180H170.981L172.701 183.8L174.411 180H175.371L172.091 187.09ZM177.312 184.78L176.282 186.43H175.712L176.382 185C176.108 184.867 175.972 184.643 175.972 184.33C175.972 184.13 176.045 183.957 176.192 183.81C176.338 183.657 176.512 183.58 176.712 183.58C176.912 183.58 177.085 183.657 177.232 183.81C177.378 183.957 177.452 184.13 177.452 184.33C177.452 184.477 177.405 184.627 177.312 184.78ZM186.492 184.17V185H181.892V184.66C181.892 184.413 181.929 184.18 182.002 183.96C182.082 183.733 182.169 183.543 182.262 183.39C182.356 183.237 182.502 183.067 182.702 182.88C182.902 182.687 183.059 182.547 183.172 182.46C183.286 182.367 183.476 182.227 183.742 182.04C184.009 181.847 184.186 181.72 184.272 181.66C184.746 181.313 185.072 181.023 185.252 180.79C185.439 180.55 185.532 180.237 185.532 179.85C185.532 179.477 185.412 179.18 185.172 178.96C184.932 178.733 184.619 178.62 184.232 178.62C183.826 178.62 183.479 178.743 183.192 178.99C182.906 179.237 182.762 179.58 182.762 180.02H181.882C181.882 179.353 182.102 178.813 182.542 178.4C182.989 177.987 183.549 177.78 184.222 177.78C184.849 177.78 185.369 177.96 185.782 178.32C186.202 178.68 186.412 179.193 186.412 179.86C186.412 180.367 186.289 180.8 186.042 181.16C185.796 181.513 185.372 181.907 184.772 182.34C184.659 182.42 184.499 182.533 184.292 182.68C184.086 182.82 183.926 182.933 183.812 183.02C183.699 183.107 183.572 183.213 183.432 183.34C183.299 183.46 183.192 183.59 183.112 183.73C183.039 183.863 182.986 184.01 182.952 184.17H186.492ZM190.589 185.1C189.849 185.1 189.245 184.853 188.779 184.36C188.312 183.86 188.079 183.217 188.079 182.43V180.45C188.079 179.663 188.312 179.023 188.779 178.53C189.252 178.03 189.855 177.78 190.589 177.78C191.322 177.78 191.925 178.03 192.399 178.53C192.872 179.03 193.109 179.67 193.109 180.45V182.43C193.109 183.217 192.872 183.86 192.399 184.36C191.925 184.853 191.322 185.1 190.589 185.1ZM190.589 184.26C191.082 184.26 191.482 184.097 191.789 183.77C192.095 183.443 192.249 182.997 192.249 182.43V180.45C192.249 179.883 192.095 179.437 191.789 179.11C191.482 178.783 191.082 178.62 190.589 178.62C190.102 178.62 189.705 178.783 189.399 179.11C189.092 179.437 188.939 179.883 188.939 180.45V182.43C188.939 182.997 189.092 183.443 189.399 183.77C189.705 184.097 190.102 184.26 190.589 184.26ZM199.299 184.17V185H194.699V184.66C194.699 184.413 194.736 184.18 194.809 183.96C194.889 183.733 194.976 183.543 195.069 183.39C195.162 183.237 195.309 183.067 195.509 182.88C195.709 182.687 195.866 182.547 195.979 182.46C196.092 182.367 196.282 182.227 196.549 182.04C196.816 181.847 196.992 181.72 197.079 181.66C197.552 181.313 197.879 181.023 198.059 180.79C198.246 180.55 198.339 180.237 198.339 179.85C198.339 179.477 198.219 179.18 197.979 178.96C197.739 178.733 197.426 178.62 197.039 178.62C196.632 178.62 196.286 178.743 195.999 178.99C195.712 179.237 195.569 179.58 195.569 180.02H194.689C194.689 179.353 194.909 178.813 195.349 178.4C195.796 177.987 196.356 177.78 197.029 177.78C197.656 177.78 198.176 177.96 198.589 178.32C199.009 178.68 199.219 179.193 199.219 179.86C199.219 180.367 199.096 180.8 198.849 181.16C198.602 181.513 198.179 181.907 197.579 182.34C197.466 182.42 197.306 182.533 197.099 182.68C196.892 182.82 196.732 182.933 196.619 183.02C196.506 183.107 196.379 183.213 196.239 183.34C196.106 183.46 195.999 183.59 195.919 183.73C195.846 183.863 195.792 184.01 195.759 184.17H199.299ZM205.375 184.17V185H200.775V184.66C200.775 184.413 200.812 184.18 200.885 183.96C200.965 183.733 201.052 183.543 201.145 183.39C201.238 183.237 201.385 183.067 201.585 182.88C201.785 182.687 201.942 182.547 202.055 182.46C202.168 182.367 202.358 182.227 202.625 182.04C202.892 181.847 203.068 181.72 203.155 181.66C203.628 181.313 203.955 181.023 204.135 180.79C204.322 180.55 204.415 180.237 204.415 179.85C204.415 179.477 204.295 179.18 204.055 178.96C203.815 178.733 203.502 178.62 203.115 178.62C202.708 178.62 202.362 178.743 202.075 178.99C201.788 179.237 201.645 179.58 201.645 180.02H200.765C200.765 179.353 200.985 178.813 201.425 178.4C201.872 177.987 202.432 177.78 203.105 177.78C203.732 177.78 204.252 177.96 204.665 178.32C205.085 178.68 205.295 179.193 205.295 179.86C205.295 180.367 205.172 180.8 204.925 181.16C204.678 181.513 204.255 181.907 203.655 182.34C203.542 182.42 203.382 182.533 203.175 182.68C202.968 182.82 202.808 182.933 202.695 183.02C202.582 183.107 202.455 183.213 202.315 183.34C202.182 183.46 202.075 183.59 201.995 183.73C201.922 183.863 201.868 184.01 201.835 184.17H205.375Z" fill="#5A5A5A"/>
<line x1="10.5" y1="-2.18557e-08" x2="10.5" y2="30" stroke="black"/>
<line x1="10.5" y1="63" x2="10.5" y2="93" stroke="black"/>
<line x1="10.5" y1="128" x2="10.5" y2="158" stroke="black"/>
<path d="M48.48 110.144C47.616 110.144 46.908 109.908 46.356 109.436C45.812 108.964 45.532 108.392 45.516 107.72H46.632C46.68 108.16 46.884 108.5 47.244 108.74C47.612 108.98 48.02 109.1 48.468 109.1C48.932 109.1 49.316 108.984 49.62 108.752C49.924 108.52 50.076 108.212 50.076 107.828C50.076 107.18 49.672 106.704 48.864 106.4L47.688 105.968C47.016 105.736 46.52 105.428 46.2 105.044C45.888 104.66 45.728 104.168 45.72 103.568C45.72 102.888 45.96 102.348 46.44 101.948C46.928 101.54 47.552 101.336 48.312 101.336C49.112 101.336 49.744 101.568 50.208 102.032C50.68 102.488 50.944 103.024 51 103.64H49.896C49.792 103.216 49.592 102.9 49.296 102.692C49.008 102.484 48.672 102.38 48.288 102.38C47.872 102.38 47.524 102.484 47.244 102.692C46.972 102.9 46.836 103.18 46.836 103.532C46.836 103.884 46.932 104.164 47.124 104.372C47.316 104.58 47.628 104.76 48.06 104.912L49.152 105.308C49.824 105.548 50.332 105.868 50.676 106.268C51.02 106.66 51.192 107.168 51.192 107.792C51.192 108.504 50.94 109.076 50.436 109.508C49.932 109.932 49.28 110.144 48.48 110.144ZM53.4663 110V101.48H54.5823V105.116H59.2503V101.48H60.3663V110H59.2503V106.16H54.5823V110H53.4663ZM63.2186 110V101.48H64.3346V110H63.2186ZM71.9096 102.248C72.4536 102.76 72.7256 103.408 72.7256 104.192C72.7256 104.976 72.4536 105.624 71.9096 106.136C71.3736 106.64 70.6696 106.892 69.7976 106.892H68.3096V110H67.1936V101.48H69.7976C70.6696 101.48 71.3736 101.736 71.9096 102.248ZM71.1296 105.392C71.4576 105.08 71.6216 104.68 71.6216 104.192C71.6216 103.704 71.4576 103.304 71.1296 102.992C70.8096 102.68 70.3656 102.524 69.7976 102.524H68.3096V105.86H69.7976C70.3656 105.86 70.8096 105.704 71.1296 105.392ZM79.5409 102.248C80.0849 102.76 80.3569 103.408 80.3569 104.192C80.3569 104.976 80.0849 105.624 79.5409 106.136C79.0049 106.64 78.3009 106.892 77.4289 106.892H75.9409V110H74.8249V101.48H77.4289C78.3009 101.48 79.0049 101.736 79.5409 102.248ZM78.7609 105.392C79.0889 105.08 79.2529 104.68 79.2529 104.192C79.2529 103.704 79.0889 103.304 78.7609 102.992C78.4409 102.68 77.9969 102.524 77.4289 102.524H75.9409V105.86H77.4289C77.9969 105.86 78.4409 105.704 78.7609 105.392ZM82.4561 110V101.48H87.4241V102.536H83.5721V105.116H86.7041V106.172H83.5721V108.944H87.4241V110H82.4561ZM89.7358 110V101.48H92.1838C93.4878 101.48 94.5678 101.884 95.4238 102.692C96.2878 103.5 96.7198 104.516 96.7198 105.74C96.7198 106.964 96.2878 107.98 95.4238 108.788C94.5678 109.596 93.4878 110 92.1838 110H89.7358ZM90.8518 108.956H92.1838C93.1998 108.956 94.0198 108.656 94.6438 108.056C95.2758 107.448 95.5918 106.676 95.5918 105.74C95.5918 104.804 95.2758 104.036 94.6438 103.436C94.0198 102.828 93.1998 102.524 92.1838 102.524H90.8518V108.956Z" fill="black"/>
<path d="M49.944 42.088C50.88 42.088 51.66 41.764 52.284 41.116C52.916 40.468 53.232 39.676 53.232 38.74C53.232 37.804 52.916 37.012 52.284 36.364C51.66 35.716 50.88 35.392 49.944 35.392C49.016 35.392 48.236 35.716 47.604 36.364C46.98 37.012 46.668 37.804 46.668 38.74C46.668 39.676 46.98 40.468 47.604 41.116C48.236 41.764 49.016 42.088 49.944 42.088ZM49.944 43.144C48.72 43.144 47.68 42.72 46.824 41.872C45.968 41.016 45.54 39.972 45.54 38.74C45.54 37.508 45.968 36.468 46.824 35.62C47.68 34.764 48.72 34.336 49.944 34.336C51.176 34.336 52.216 34.764 53.064 35.62C53.92 36.468 54.348 37.508 54.348 38.74C54.348 39.972 53.92 41.016 53.064 41.872C52.216 42.72 51.176 43.144 49.944 43.144ZM56.6303 43V34.48H59.5343C60.3183 34.48 60.9383 34.696 61.3943 35.128C61.8503 35.552 62.0783 36.12 62.0783 36.832C62.0783 37.456 61.8903 37.968 61.5143 38.368C61.1463 38.768 60.6303 39.016 59.9663 39.112L63.2543 43H61.8503L58.5743 39.124H57.7463V43H56.6303ZM57.7463 38.128H59.4023C59.8983 38.128 60.2823 38.02 60.5543 37.804C60.8263 37.58 60.9623 37.256 60.9623 36.832C60.9623 36.408 60.8263 36.084 60.5543 35.86C60.2823 35.628 59.8983 35.512 59.4023 35.512H57.7463V38.128ZM64.8475 43V34.48H67.2955C68.5995 34.48 69.6795 34.884 70.5355 35.692C71.3995 36.5 71.8315 37.516 71.8315 38.74C71.8315 39.964 71.3995 40.98 70.5355 41.788C69.6795 42.596 68.5995 43 67.2955 43H64.8475ZM65.9635 41.956H67.2955C68.3115 41.956 69.1315 41.656 69.7555 41.056C70.3875 40.448 70.7035 39.676 70.7035 38.74C70.7035 37.804 70.3875 37.036 69.7555 36.436C69.1315 35.828 68.3115 35.524 67.2955 35.524H65.9635V41.956ZM74.096 43V34.48H79.064V35.536H75.212V38.116H78.344V39.172H75.212V41.944H79.064V43H74.096ZM81.3757 43V34.48H84.2797C85.0637 34.48 85.6837 34.696 86.1397 35.128C86.5957 35.552 86.8237 36.12 86.8237 36.832C86.8237 37.456 86.6357 37.968 86.2597 38.368C85.8917 38.768 85.3757 39.016 84.7117 39.112L87.9997 43H86.5957L83.3197 39.124H82.4917V43H81.3757ZM82.4917 38.128H84.1477C84.6437 38.128 85.0277 38.02 85.2997 37.804C85.5717 37.58 85.7077 37.256 85.7077 36.832C85.7077 36.408 85.5717 36.084 85.2997 35.86C85.0277 35.628 84.6437 35.512 84.1477 35.512H82.4917V38.128ZM89.5928 43V34.48H94.5608V35.536H90.7088V38.116H93.8408V39.172H90.7088V41.944H94.5608V43H89.5928ZM96.8725 43V34.48H99.3205C100.625 34.48 101.705 34.884 102.561 35.692C103.425 36.5 103.857 37.516 103.857 38.74C103.857 39.964 103.425 40.98 102.561 41.788C101.705 42.596 100.625 43 99.3205 43H96.8725ZM97.9885 41.956H99.3205C100.337 41.956 101.157 41.656 101.781 41.056C102.413 40.448 102.729 39.676 102.729 38.74C102.729 37.804 102.413 37.036 101.781 36.436C101.157 35.828 100.337 35.524 99.3205 35.524H97.9885V41.956Z" fill="black"/>
<path d="M48.03 55.1C47.2767 55.1 46.65 54.85 46.15 54.35C45.6567 53.8433 45.41 53.2267 45.41 52.5C45.41 51.7733 45.6567 51.16 46.15 50.66C46.65 50.1533 47.2767 49.9 48.03 49.9C48.7767 49.9 49.3967 50.1533 49.89 50.66C50.39 51.16 50.64 51.7733 50.64 52.5C50.64 53.2267 50.39 53.8433 49.89 54.35C49.3967 54.85 48.7767 55.1 48.03 55.1ZM46.77 53.78C47.0967 54.1267 47.5167 54.3 48.03 54.3C48.5433 54.3 48.96 54.1267 49.28 53.78C49.6 53.4333 49.76 53.0067 49.76 52.5C49.76 51.9933 49.6 51.5667 49.28 51.22C48.96 50.8733 48.5433 50.7 48.03 50.7C47.5167 50.7 47.0967 50.8733 46.77 51.22C46.45 51.5667 46.29 51.9933 46.29 52.5C46.29 53.0067 46.45 53.4333 46.77 53.78ZM52.3745 55V50H53.2345V50.97C53.3278 50.6633 53.5078 50.4167 53.7745 50.23C54.0478 50.0433 54.3345 49.95 54.6345 49.95C54.7811 49.95 54.9111 49.9633 55.0245 49.99V50.88C54.9045 50.8267 54.7478 50.8 54.5545 50.8C54.2078 50.8 53.9011 50.95 53.6345 51.25C53.3678 51.55 53.2345 51.9733 53.2345 52.52V55H52.3745ZM58.4305 55.1C57.7372 55.1 57.1539 54.8467 56.6805 54.34C56.2139 53.8333 55.9805 53.22 55.9805 52.5C55.9805 51.78 56.2139 51.1667 56.6805 50.66C57.1539 50.1533 57.7372 49.9 58.4305 49.9C58.7972 49.9 59.1372 49.9833 59.4505 50.15C59.7705 50.31 60.0172 50.5167 60.1905 50.77V47.5H61.0505V55H60.1905V54.23C60.0172 54.4833 59.7705 54.6933 59.4505 54.86C59.1372 55.02 58.7972 55.1 58.4305 55.1ZM58.5605 54.31C59.0539 54.31 59.4605 54.1367 59.7805 53.79C60.1005 53.4433 60.2605 53.0133 60.2605 52.5C60.2605 51.9867 60.1005 51.5567 59.7805 51.21C59.4605 50.8633 59.0539 50.69 58.5605 50.69C58.0605 50.69 57.6505 50.8633 57.3305 51.21C57.0105 51.5567 56.8505 51.9867 56.8505 52.5C56.8505 53.0133 57.0105 53.4433 57.3305 53.79C57.6505 54.1367 58.0605 54.31 58.5605 54.31ZM65.2994 55.1C64.5727 55.1 63.9694 54.8533 63.4894 54.36C63.016 53.8667 62.7794 53.2467 62.7794 52.5C62.7794 51.7467 63.0094 51.1267 63.4694 50.64C63.936 50.1467 64.5527 49.9 65.3194 49.9C66.0927 49.9 66.6994 50.1733 67.1394 50.72C67.5794 51.2667 67.7727 51.9367 67.7194 52.73H63.6494C63.6627 53.1833 63.8294 53.5633 64.1494 53.87C64.4694 54.17 64.856 54.32 65.3094 54.32C65.9894 54.32 66.4727 54.04 66.7594 53.48H67.6394C67.5127 53.9467 67.2427 54.3333 66.8294 54.64C66.416 54.9467 65.906 55.1 65.2994 55.1ZM66.2794 51.02C66.006 50.78 65.676 50.66 65.2894 50.66C64.9027 50.66 64.556 50.7767 64.2494 51.01C63.9494 51.2433 63.7627 51.59 63.6894 52.05H66.8094C66.7294 51.5967 66.5527 51.2533 66.2794 51.02ZM69.4604 55V50H70.3204V50.97C70.4137 50.6633 70.5937 50.4167 70.8604 50.23C71.1337 50.0433 71.4204 49.95 71.7204 49.95C71.8671 49.95 71.9971 49.9633 72.1104 49.99V50.88C71.9904 50.8267 71.8337 50.8 71.6404 50.8C71.2937 50.8 70.9871 50.95 70.7204 51.25C70.4537 51.55 70.3204 51.9733 70.3204 52.52V55H69.4604ZM77.1407 57.09H76.2807V50H77.1407V50.77C77.314 50.5167 77.5574 50.31 77.8707 50.15C78.1907 49.9833 78.534 49.9 78.9007 49.9C79.594 49.9 80.174 50.1533 80.6407 50.66C81.114 51.1667 81.3507 51.78 81.3507 52.5C81.3507 53.22 81.114 53.8333 80.6407 54.34C80.174 54.8467 79.594 55.1 78.9007 55.1C78.534 55.1 78.1907 55.02 77.8707 54.86C77.5574 54.6933 77.314 54.4833 77.1407 54.23V57.09ZM77.5507 53.79C77.8707 54.1367 78.2774 54.31 78.7707 54.31C79.264 54.31 79.6707 54.1367 79.9907 53.79C80.3107 53.4433 80.4707 53.0133 80.4707 52.5C80.4707 51.9867 80.3107 51.5567 79.9907 51.21C79.6707 50.8633 79.264 50.69 78.7707 50.69C78.2774 50.69 77.8707 50.8633 77.5507 51.21C77.2307 51.5567 77.0707 51.9867 77.0707 52.5C77.0707 53.0133 77.2307 53.4433 77.5507 53.79ZM83.0893 55V47.5H83.9493V55H83.0893ZM88.1395 55.1C87.4462 55.1 86.8629 54.8467 86.3895 54.34C85.9229 53.8333 85.6895 53.22 85.6895 52.5C85.6895 51.78 85.9229 51.1667 86.3895 50.66C86.8629 50.1533 87.4462 49.9 88.1395 49.9C88.5062 49.9 88.8462 49.9833 89.1595 50.15C89.4795 50.31 89.7262 50.5167 89.8995 50.77V50H90.7595V55H89.8995V54.23C89.7262 54.4833 89.4795 54.6933 89.1595 54.86C88.8462 55.02 88.5062 55.1 88.1395 55.1ZM88.2695 54.31C88.7629 54.31 89.1695 54.1367 89.4895 53.79C89.8095 53.4433 89.9695 53.0133 89.9695 52.5C89.9695 51.9867 89.8095 51.5567 89.4895 51.21C89.1695 50.8633 88.7629 50.69 88.2695 50.69C87.7695 50.69 87.3595 50.8633 87.0395 51.21C86.7195 51.5567 86.5595 51.9867 86.5595 52.5C86.5595 53.0133 86.7195 53.4433 87.0395 53.79C87.3595 54.1367 87.7695 54.31 88.2695 54.31ZM95.0984 55.1C94.345 55.1 93.7217 54.85 93.2284 54.35C92.735 53.8433 92.4884 53.2267 92.4884 52.5C92.4884 51.7733 92.735 51.16 93.2284 50.66C93.7217 50.1533 94.345 49.9 95.0984 49.9C95.7184 49.9 96.255 50.0733 96.7084 50.42C97.1617 50.76 97.465 51.2067 97.6184 51.76H96.6984C96.5784 51.4333 96.3784 51.1733 96.0984 50.98C95.8184 50.7867 95.485 50.69 95.0984 50.69C94.585 50.69 94.165 50.8633 93.8384 51.21C93.5184 51.5567 93.3584 51.9867 93.3584 52.5C93.3584 53.0133 93.5184 53.4433 93.8384 53.79C94.165 54.1367 94.585 54.31 95.0984 54.31C95.485 54.31 95.8184 54.2133 96.0984 54.02C96.3784 53.8267 96.5784 53.5667 96.6984 53.24H97.6184C97.4717 53.7933 97.1717 54.2433 96.7184 54.59C96.265 54.93 95.725 55.1 95.0984 55.1ZM101.387 55.1C100.661 55.1 100.057 54.8533 99.5773 54.36C99.1039 53.8667 98.8673 53.2467 98.8673 52.5C98.8673 51.7467 99.0973 51.1267 99.5573 50.64C100.024 50.1467 100.641 49.9 101.407 49.9C102.181 49.9 102.787 50.1733 103.227 50.72C103.667 51.2667 103.861 51.9367 103.807 52.73H99.7373C99.7506 53.1833 99.9173 53.5633 100.237 53.87C100.557 54.17 100.944 54.32 101.397 54.32C102.077 54.32 102.561 54.04 102.847 53.48H103.727C103.601 53.9467 103.331 54.3333 102.917 54.64C102.504 54.9467 101.994 55.1 101.387 55.1ZM102.367 51.02C102.094 50.78 101.764 50.66 101.377 50.66C100.991 50.66 100.644 50.7767 100.337 51.01C100.037 51.2433 99.8506 51.59 99.7773 52.05H102.897C102.817 51.5967 102.641 51.2533 102.367 51.02ZM107.608 55.1C106.915 55.1 106.332 54.8467 105.858 54.34C105.392 53.8333 105.158 53.22 105.158 52.5C105.158 51.78 105.392 51.1667 105.858 50.66C106.332 50.1533 106.915 49.9 107.608 49.9C107.975 49.9 108.315 49.9833 108.628 50.15C108.948 50.31 109.195 50.5167 109.368 50.77V47.5H110.228V55H109.368V54.23C109.195 54.4833 108.948 54.6933 108.628 54.86C108.315 55.02 107.975 55.1 107.608 55.1ZM107.738 54.31C108.232 54.31 108.638 54.1367 108.958 53.79C109.278 53.4433 109.438 53.0133 109.438 52.5C109.438 51.9867 109.278 51.5567 108.958 51.21C108.638 50.8633 108.232 50.69 107.738 50.69C107.238 50.69 106.828 50.8633 106.508 51.21C106.188 51.5567 106.028 51.9867 106.028 52.5C106.028 53.0133 106.188 53.4433 106.508 53.79C106.828 54.1367 107.238 54.31 107.738 54.31ZM117.479 55.1C116.726 55.1 116.099 54.85 115.599 54.35C115.106 53.8433 114.859 53.2267 114.859 52.5C114.859 51.7733 115.106 51.16 115.599 50.66C116.099 50.1533 116.726 49.9 117.479 49.9C118.226 49.9 118.846 50.1533 119.339 50.66C119.839 51.16 120.089 51.7733 120.089 52.5C120.089 53.2267 119.839 53.8433 119.339 54.35C118.846 54.85 118.226 55.1 117.479 55.1ZM116.219 53.78C116.546 54.1267 116.966 54.3 117.479 54.3C117.993 54.3 118.409 54.1267 118.729 53.78C119.049 53.4333 119.209 53.0067 119.209 52.5C119.209 51.9933 119.049 51.5667 118.729 51.22C118.409 50.8733 117.993 50.7 117.479 50.7C116.966 50.7 116.546 50.8733 116.219 51.22C115.899 51.5667 115.739 51.9933 115.739 52.5C115.739 53.0067 115.899 53.4333 116.219 53.78ZM121.824 55V50H122.684V50.77C123.024 50.19 123.554 49.9 124.274 49.9C124.84 49.9 125.297 50.0833 125.644 50.45C125.99 50.8167 126.164 51.3067 126.164 51.92V55H125.314V52.05C125.314 51.63 125.207 51.3 124.994 51.06C124.78 50.8133 124.494 50.69 124.134 50.69C123.72 50.69 123.374 50.8533 123.094 51.18C122.82 51.5067 122.684 51.9533 122.684 52.52V55H121.824ZM131.884 55H130.924L134.234 48.74H130.604V47.9H135.264V48.62L131.884 55ZM140.832 55.12C140.225 55.12 139.722 54.9433 139.322 54.59C138.922 54.23 138.722 53.7333 138.722 53.1H139.642C139.642 53.46 139.755 53.7433 139.982 53.95C140.215 54.1567 140.495 54.26 140.822 54.26C141.162 54.26 141.442 54.1533 141.662 53.94C141.882 53.7267 141.992 53.3933 141.992 52.94V47.9H142.912V53.04C142.912 53.74 142.715 54.2633 142.322 54.61C141.929 54.95 141.432 55.12 140.832 55.12ZM146.787 55.1C146.24 55.1 145.797 54.9167 145.457 54.55C145.117 54.1767 144.947 53.6833 144.947 53.07V50H145.807V52.94C145.807 53.36 145.907 53.6933 146.107 53.94C146.314 54.1867 146.59 54.31 146.937 54.31C147.337 54.31 147.667 54.1467 147.927 53.82C148.194 53.4867 148.327 53.04 148.327 52.48V50H149.187V55H148.327V54.23C148 54.81 147.487 55.1 146.787 55.1ZM151.308 55V47.5H152.168V55H151.308ZM155.628 57.09H154.668L155.758 54.74L153.568 50H154.518L156.238 53.8L157.948 50H158.908L155.628 57.09ZM160.849 54.78L159.819 56.43H159.249L159.919 55C159.645 54.8667 159.509 54.6433 159.509 54.33C159.509 54.13 159.582 53.9567 159.729 53.81C159.875 53.6567 160.049 53.58 160.249 53.58C160.449 53.58 160.622 53.6567 160.769 53.81C160.915 53.9567 160.989 54.13 160.989 54.33C160.989 54.4767 160.942 54.6267 160.849 54.78ZM170.029 54.17V55H165.429V54.66C165.429 54.4133 165.466 54.18 165.539 53.96C165.619 53.7333 165.706 53.5433 165.799 53.39C165.893 53.2367 166.039 53.0667 166.239 52.88C166.439 52.6867 166.596 52.5467 166.709 52.46C166.823 52.3667 167.013 52.2267 167.279 52.04C167.546 51.8467 167.723 51.72 167.809 51.66C168.283 51.3133 168.609 51.0233 168.789 50.79C168.976 50.55 169.069 50.2367 169.069 49.85C169.069 49.4767 168.949 49.18 168.709 48.96C168.469 48.7333 168.156 48.62 167.769 48.62C167.363 48.62 167.016 48.7433 166.729 48.99C166.443 49.2367 166.299 49.58 166.299 50.02H165.419C165.419 49.3533 165.639 48.8133 166.079 48.4C166.526 47.9867 167.086 47.78 167.759 47.78C168.386 47.78 168.906 47.96 169.319 48.32C169.739 48.68 169.949 49.1933 169.949 49.86C169.949 50.3667 169.826 50.8 169.579 51.16C169.333 51.5133 168.909 51.9067 168.309 52.34C168.196 52.42 168.036 52.5333 167.829 52.68C167.623 52.82 167.463 52.9333 167.349 53.02C167.236 53.1067 167.109 53.2133 166.969 53.34C166.836 53.46 166.729 53.59 166.649 53.73C166.576 53.8633 166.523 54.01 166.489 54.17H170.029ZM174.126 55.1C173.386 55.1 172.782 54.8533 172.316 54.36C171.849 53.86 171.616 53.2167 171.616 52.43V50.45C171.616 49.6633 171.849 49.0233 172.316 48.53C172.789 48.03 173.392 47.78 174.126 47.78C174.859 47.78 175.462 48.03 175.936 48.53C176.409 49.03 176.646 49.67 176.646 50.45V52.43C176.646 53.2167 176.409 53.86 175.936 54.36C175.462 54.8533 174.859 55.1 174.126 55.1ZM174.126 54.26C174.619 54.26 175.019 54.0967 175.326 53.77C175.632 53.4433 175.786 52.9967 175.786 52.43V50.45C175.786 49.8833 175.632 49.4367 175.326 49.11C175.019 48.7833 174.619 48.62 174.126 48.62C173.639 48.62 173.242 48.7833 172.936 49.11C172.629 49.4367 172.476 49.8833 172.476 50.45V52.43C172.476 52.9967 172.629 53.4433 172.936 53.77C173.242 54.0967 173.639 54.26 174.126 54.26ZM182.836 54.17V55H178.236V54.66C178.236 54.4133 178.273 54.18 178.346 53.96C178.426 53.7333 178.513 53.5433 178.606 53.39C178.699 53.2367 178.846 53.0667 179.046 52.88C179.246 52.6867 179.403 52.5467 179.516 52.46C179.629 52.3667 179.819 52.2267 180.086 52.04C180.353 51.8467 180.529 51.72 180.616 51.66C181.089 51.3133 181.416 51.0233 181.596 50.79C181.783 50.55 181.876 50.2367 181.876 49.85C181.876 49.4767 181.756 49.18 181.516 48.96C181.276 48.7333 180.963 48.62 180.576 48.62C180.169 48.62 179.823 48.7433 179.536 48.99C179.249 49.2367 179.106 49.58 179.106 50.02H178.226C178.226 49.3533 178.446 48.8133 178.886 48.4C179.333 47.9867 179.893 47.78 180.566 47.78C181.193 47.78 181.713 47.96 182.126 48.32C182.546 48.68 182.756 49.1933 182.756 49.86C182.756 50.3667 182.633 50.8 182.386 51.16C182.139 51.5133 181.716 51.9067 181.116 52.34C181.003 52.42 180.843 52.5333 180.636 52.68C180.429 52.82 180.269 52.9333 180.156 53.02C180.043 53.1067 179.916 53.2133 179.776 53.34C179.643 53.46 179.536 53.59 179.456 53.73C179.383 53.8633 179.329 54.01 179.296 54.17H182.836ZM188.912 54.17V55H184.312V54.66C184.312 54.4133 184.349 54.18 184.422 53.96C184.502 53.7333 184.589 53.5433 184.682 53.39C184.776 53.2367 184.922 53.0667 185.122 52.88C185.322 52.6867 185.479 52.5467 185.592 52.46C185.706 52.3667 185.896 52.2267 186.162 52.04C186.429 51.8467 186.606 51.72 186.692 51.66C187.166 51.3133 187.492 51.0233 187.672 50.79C187.859 50.55 187.952 50.2367 187.952 49.85C187.952 49.4767 187.832 49.18 187.592 48.96C187.352 48.7333 187.039 48.62 186.652 48.62C186.246 48.62 185.899 48.7433 185.612 48.99C185.326 49.2367 185.182 49.58 185.182 50.02H184.302C184.302 49.3533 184.522 48.8133 184.962 48.4C185.409 47.9867 185.969 47.78 186.642 47.78C187.269 47.78 187.789 47.96 188.202 48.32C188.622 48.68 188.832 49.1933 188.832 49.86C188.832 50.3667 188.709 50.8 188.462 51.16C188.216 51.5133 187.792 51.9067 187.192 52.34C187.079 52.42 186.919 52.5333 186.712 52.68C186.506 52.82 186.346 52.9333 186.232 53.02C186.119 53.1067 185.992 53.2133 185.852 53.34C185.719 53.46 185.612 53.59 185.532 53.73C185.459 53.8633 185.406 54.01 185.372 54.17H188.912Z" fill="#5A5A5A"/>
<path d="M49.03 123.1C48.2767 123.1 47.65 122.85 47.15 122.35C46.6567 121.843 46.41 121.227 46.41 120.5C46.41 119.773 46.6567 119.16 47.15 118.66C47.65 118.153 48.2767 117.9 49.03 117.9C49.7767 117.9 50.3967 118.153 50.89 118.66C51.39 119.16 51.64 119.773 51.64 120.5C51.64 121.227 51.39 121.843 50.89 122.35C50.3967 122.85 49.7767 123.1 49.03 123.1ZM47.77 121.78C48.0967 122.127 48.5167 122.3 49.03 122.3C49.5433 122.3 49.96 122.127 50.28 121.78C50.6 121.433 50.76 121.007 50.76 120.5C50.76 119.993 50.6 119.567 50.28 119.22C49.96 118.873 49.5433 118.7 49.03 118.7C48.5167 118.7 48.0967 118.873 47.77 119.22C47.45 119.567 47.29 119.993 47.29 120.5C47.29 121.007 47.45 121.433 47.77 121.78ZM53.3745 123V118H54.2345V118.97C54.3278 118.663 54.5078 118.417 54.7745 118.23C55.0478 118.043 55.3345 117.95 55.6345 117.95C55.7811 117.95 55.9111 117.963 56.0245 117.99V118.88C55.9045 118.827 55.7478 118.8 55.5545 118.8C55.2078 118.8 54.9011 118.95 54.6345 119.25C54.3678 119.55 54.2345 119.973 54.2345 120.52V123H53.3745ZM59.4305 123.1C58.7372 123.1 58.1539 122.847 57.6805 122.34C57.2139 121.833 56.9805 121.22 56.9805 120.5C56.9805 119.78 57.2139 119.167 57.6805 118.66C58.1539 118.153 58.7372 117.9 59.4305 117.9C59.7972 117.9 60.1372 117.983 60.4505 118.15C60.7705 118.31 61.0172 118.517 61.1905 118.77V115.5H62.0505V123H61.1905V122.23C61.0172 122.483 60.7705 122.693 60.4505 122.86C60.1372 123.02 59.7972 123.1 59.4305 123.1ZM59.5605 122.31C60.0539 122.31 60.4605 122.137 60.7805 121.79C61.1005 121.443 61.2605 121.013 61.2605 120.5C61.2605 119.987 61.1005 119.557 60.7805 119.21C60.4605 118.863 60.0539 118.69 59.5605 118.69C59.0605 118.69 58.6505 118.863 58.3305 119.21C58.0105 119.557 57.8505 119.987 57.8505 120.5C57.8505 121.013 58.0105 121.443 58.3305 121.79C58.6505 122.137 59.0605 122.31 59.5605 122.31ZM66.2994 123.1C65.5727 123.1 64.9694 122.853 64.4894 122.36C64.016 121.867 63.7794 121.247 63.7794 120.5C63.7794 119.747 64.0094 119.127 64.4694 118.64C64.936 118.147 65.5527 117.9 66.3194 117.9C67.0927 117.9 67.6994 118.173 68.1394 118.72C68.5794 119.267 68.7727 119.937 68.7194 120.73H64.6494C64.6627 121.183 64.8294 121.563 65.1494 121.87C65.4694 122.17 65.856 122.32 66.3094 122.32C66.9894 122.32 67.4727 122.04 67.7594 121.48H68.6394C68.5127 121.947 68.2427 122.333 67.8294 122.64C67.416 122.947 66.906 123.1 66.2994 123.1ZM67.2794 119.02C67.006 118.78 66.676 118.66 66.2894 118.66C65.9027 118.66 65.556 118.777 65.2494 119.01C64.9494 119.243 64.7627 119.59 64.6894 120.05H67.8094C67.7294 119.597 67.5527 119.253 67.2794 119.02ZM70.4604 123V118H71.3204V118.97C71.4137 118.663 71.5937 118.417 71.8604 118.23C72.1337 118.043 72.4204 117.95 72.7204 117.95C72.8671 117.95 72.9971 117.963 73.1104 117.99V118.88C72.9904 118.827 72.8337 118.8 72.6404 118.8C72.2937 118.8 71.9871 118.95 71.7204 119.25C71.4537 119.55 71.3204 119.973 71.3204 120.52V123H70.4604ZM79.3407 123.1C78.6474 123.1 78.064 122.847 77.5907 122.34C77.124 121.833 76.8907 121.22 76.8907 120.5C76.8907 119.78 77.124 119.167 77.5907 118.66C78.064 118.153 78.6474 117.9 79.3407 117.9C79.7074 117.9 80.0474 117.983 80.3607 118.15C80.6807 118.31 80.9274 118.517 81.1007 118.77V115.5H81.9607V123H81.1007V122.23C80.9274 122.483 80.6807 122.693 80.3607 122.86C80.0474 123.02 79.7074 123.1 79.3407 123.1ZM79.4707 122.31C79.964 122.31 80.3707 122.137 80.6907 121.79C81.0107 121.443 81.1707 121.013 81.1707 120.5C81.1707 119.987 81.0107 119.557 80.6907 119.21C80.3707 118.863 79.964 118.69 79.4707 118.69C78.9707 118.69 78.5607 118.863 78.2407 119.21C77.9207 119.557 77.7607 119.987 77.7607 120.5C77.7607 121.013 77.9207 121.443 78.2407 121.79C78.5607 122.137 78.9707 122.31 79.4707 122.31ZM84.9495 116.49C84.8362 116.603 84.6929 116.66 84.5195 116.66C84.3462 116.66 84.1995 116.603 84.0795 116.49C83.9595 116.37 83.8995 116.223 83.8995 116.05C83.8995 115.883 83.9595 115.74 84.0795 115.62C84.1995 115.5 84.3462 115.44 84.5195 115.44C84.6929 115.44 84.8362 115.5 84.9495 115.62C85.0629 115.74 85.1195 115.883 85.1195 116.05C85.1195 116.223 85.0629 116.37 84.9495 116.49ZM84.0795 123V118H84.9395V123H84.0795ZM88.6798 123.1C88.1198 123.1 87.6498 122.963 87.2698 122.69C86.8964 122.417 86.6898 122.037 86.6498 121.55H87.5298C87.5831 121.83 87.7164 122.037 87.9298 122.17C88.1498 122.303 88.4031 122.37 88.6898 122.37C88.9764 122.37 89.2064 122.313 89.3798 122.2C89.5598 122.087 89.6498 121.923 89.6498 121.71C89.6498 121.51 89.5831 121.347 89.4498 121.22C89.3231 121.093 89.1131 120.99 88.8198 120.91L88.0998 120.72C87.2398 120.493 86.8098 120.003 86.8098 119.25C86.8098 118.843 86.9698 118.517 87.2898 118.27C87.6164 118.023 88.0331 117.9 88.5398 117.9C89.0531 117.9 89.4731 118.037 89.7998 118.31C90.1331 118.577 90.3198 118.917 90.3598 119.33H89.4998C89.4331 119.11 89.3131 118.937 89.1398 118.81C88.9731 118.683 88.7731 118.62 88.5398 118.62C88.2931 118.62 88.0864 118.677 87.9198 118.79C87.7598 118.903 87.6798 119.053 87.6798 119.24C87.6798 119.42 87.7398 119.567 87.8598 119.68C87.9798 119.793 88.1731 119.887 88.4398 119.96L89.2398 120.17C90.0931 120.383 90.5198 120.877 90.5198 121.65C90.5198 122.13 90.3498 122.493 90.0098 122.74C89.6698 122.98 89.2264 123.1 88.6798 123.1ZM93.0977 125.09H92.2377V118H93.0977V118.77C93.2711 118.517 93.5144 118.31 93.8277 118.15C94.1477 117.983 94.4911 117.9 94.8577 117.9C95.5511 117.9 96.1311 118.153 96.5977 118.66C97.0711 119.167 97.3077 119.78 97.3077 120.5C97.3077 121.22 97.0711 121.833 96.5977 122.34C96.1311 122.847 95.5511 123.1 94.8577 123.1C94.4911 123.1 94.1477 123.02 93.8277 122.86C93.5144 122.693 93.2711 122.483 93.0977 122.23V125.09ZM93.5077 121.79C93.8277 122.137 94.2344 122.31 94.7277 122.31C95.2211 122.31 95.6277 122.137 95.9477 121.79C96.2677 121.443 96.4277 121.013 96.4277 120.5C96.4277 119.987 96.2677 119.557 95.9477 119.21C95.6277 118.863 95.2211 118.69 94.7277 118.69C94.2344 118.69 93.8277 118.863 93.5077 119.21C93.1877 119.557 93.0277 119.987 93.0277 120.5C93.0277 121.013 93.1877 121.443 93.5077 121.79ZM101.106 123.1C100.413 123.1 99.8297 122.847 99.3563 122.34C98.8897 121.833 98.6563 121.22 98.6563 120.5C98.6563 119.78 98.8897 119.167 99.3563 118.66C99.8297 118.153 100.413 117.9 101.106 117.9C101.473 117.9 101.813 117.983 102.126 118.15C102.446 118.31 102.693 118.517 102.866 118.77V118H103.726V123H102.866V122.23C102.693 122.483 102.446 122.693 102.126 122.86C101.813 123.02 101.473 123.1 101.106 123.1ZM101.236 122.31C101.73 122.31 102.136 122.137 102.456 121.79C102.776 121.443 102.936 121.013 102.936 120.5C102.936 119.987 102.776 119.557 102.456 119.21C102.136 118.863 101.73 118.69 101.236 118.69C100.736 118.69 100.326 118.863 100.006 119.21C99.6863 119.557 99.5263 119.987 99.5263 120.5C99.5263 121.013 99.6863 121.443 100.006 121.79C100.326 122.137 100.736 122.31 101.236 122.31ZM108.065 123.1C107.312 123.1 106.688 122.85 106.195 122.35C105.702 121.843 105.455 121.227 105.455 120.5C105.455 119.773 105.702 119.16 106.195 118.66C106.688 118.153 107.312 117.9 108.065 117.9C108.685 117.9 109.222 118.073 109.675 118.42C110.128 118.76 110.432 119.207 110.585 119.76H109.665C109.545 119.433 109.345 119.173 109.065 118.98C108.785 118.787 108.452 118.69 108.065 118.69C107.552 118.69 107.132 118.863 106.805 119.21C106.485 119.557 106.325 119.987 106.325 120.5C106.325 121.013 106.485 121.443 106.805 121.79C107.132 122.137 107.552 122.31 108.065 122.31C108.452 122.31 108.785 122.213 109.065 122.02C109.345 121.827 109.545 121.567 109.665 121.24H110.585C110.438 121.793 110.138 122.243 109.685 122.59C109.232 122.93 108.692 123.1 108.065 123.1ZM113.084 123H112.224V115.5H113.084V118.77C113.424 118.19 113.954 117.9 114.674 117.9C115.241 117.9 115.697 118.083 116.044 118.45C116.391 118.817 116.564 119.307 116.564 119.92V123H115.714V120.05C115.714 119.63 115.607 119.3 115.394 119.06C115.181 118.813 114.894 118.69 114.534 118.69C114.121 118.69 113.774 118.853 113.494 119.18C113.221 119.507 113.084 119.953 113.084 120.52V123ZM120.743 123.1C120.016 123.1 119.413 122.853 118.933 122.36C118.459 121.867 118.223 121.247 118.223 120.5C118.223 119.747 118.453 119.127 118.913 118.64C119.379 118.147 119.996 117.9 120.763 117.9C121.536 117.9 122.143 118.173 122.583 118.72C123.023 119.267 123.216 119.937 123.163 120.73H119.093C119.106 121.183 119.273 121.563 119.593 121.87C119.913 122.17 120.299 122.32 120.753 122.32C121.433 122.32 121.916 122.04 122.203 121.48H123.083C122.956 121.947 122.686 122.333 122.273 122.64C121.859 122.947 121.349 123.1 120.743 123.1ZM121.723 119.02C121.449 118.78 121.119 118.66 120.733 118.66C120.346 118.66 119.999 118.777 119.693 119.01C119.393 119.243 119.206 119.59 119.133 120.05H122.253C122.173 119.597 121.996 119.253 121.723 119.02ZM126.964 123.1C126.27 123.1 125.687 122.847 125.214 122.34C124.747 121.833 124.514 121.22 124.514 120.5C124.514 119.78 124.747 119.167 125.214 118.66C125.687 118.153 126.27 117.9 126.964 117.9C127.33 117.9 127.67 117.983 127.984 118.15C128.304 118.31 128.55 118.517 128.724 118.77V115.5H129.584V123H128.724V122.23C128.55 122.483 128.304 122.693 127.984 122.86C127.67 123.02 127.33 123.1 126.964 123.1ZM127.094 122.31C127.587 122.31 127.994 122.137 128.314 121.79C128.634 121.443 128.794 121.013 128.794 120.5C128.794 119.987 128.634 119.557 128.314 119.21C127.994 118.863 127.587 118.69 127.094 118.69C126.594 118.69 126.184 118.863 125.864 119.21C125.544 119.557 125.384 119.987 125.384 120.5C125.384 121.013 125.544 121.443 125.864 121.79C126.184 122.137 126.594 122.31 127.094 122.31ZM136.835 123.1C136.081 123.1 135.455 122.85 134.955 122.35C134.461 121.843 134.215 121.227 134.215 120.5C134.215 119.773 134.461 119.16 134.955 118.66C135.455 118.153 136.081 117.9 136.835 117.9C137.581 117.9 138.201 118.153 138.695 118.66C139.195 119.16 139.445 119.773 139.445 120.5C139.445 121.227 139.195 121.843 138.695 122.35C138.201 122.85 137.581 123.1 136.835 123.1ZM135.575 121.78C135.901 122.127 136.321 122.3 136.835 122.3C137.348 122.3 137.765 122.127 138.085 121.78C138.405 121.433 138.565 121.007 138.565 120.5C138.565 119.993 138.405 119.567 138.085 119.22C137.765 118.873 137.348 118.7 136.835 118.7C136.321 118.7 135.901 118.873 135.575 119.22C135.255 119.567 135.095 119.993 135.095 120.5C135.095 121.007 135.255 121.433 135.575 121.78ZM141.179 123V118H142.039V118.77C142.379 118.19 142.909 117.9 143.629 117.9C144.196 117.9 144.652 118.083 144.999 118.45C145.346 118.817 145.519 119.307 145.519 119.92V123H144.669V120.05C144.669 119.63 144.562 119.3 144.349 119.06C144.136 118.813 143.849 118.69 143.489 118.69C143.076 118.69 142.729 118.853 142.449 119.18C142.176 119.507 142.039 119.953 142.039 120.52V123H141.179ZM150.41 123L152.6 120.42C152.527 120.427 152.433 120.43 152.32 120.43C151.727 120.43 151.207 120.203 150.76 119.75C150.32 119.297 150.1 118.763 150.1 118.15C150.1 117.483 150.327 116.923 150.78 116.47C151.24 116.01 151.813 115.78 152.5 115.78C153.187 115.78 153.76 116.007 154.22 116.46C154.68 116.913 154.91 117.467 154.91 118.12C154.91 118.467 154.84 118.78 154.7 119.06C154.567 119.333 154.37 119.623 154.11 119.93L151.51 123H150.41ZM151.41 119.23C151.703 119.523 152.067 119.67 152.5 119.67C152.933 119.67 153.297 119.523 153.59 119.23C153.883 118.93 154.03 118.567 154.03 118.14C154.03 117.713 153.883 117.353 153.59 117.06C153.297 116.76 152.933 116.61 152.5 116.61C152.067 116.61 151.703 116.76 151.41 117.06C151.123 117.353 150.98 117.713 150.98 118.14C150.98 118.567 151.123 118.93 151.41 119.23ZM160.685 123.12C160.079 123.12 159.575 122.943 159.175 122.59C158.775 122.23 158.575 121.733 158.575 121.1H159.495C159.495 121.46 159.609 121.743 159.835 121.95C160.069 122.157 160.349 122.26 160.675 122.26C161.015 122.26 161.295 122.153 161.515 121.94C161.735 121.727 161.845 121.393 161.845 120.94V115.9H162.765V121.04C162.765 121.74 162.569 122.263 162.175 122.61C161.782 122.95 161.285 123.12 160.685 123.12ZM166.641 123.1C166.094 123.1 165.651 122.917 165.311 122.55C164.971 122.177 164.801 121.683 164.801 121.07V118H165.661V120.94C165.661 121.36 165.761 121.693 165.961 121.94C166.167 122.187 166.444 122.31 166.791 122.31C167.191 122.31 167.521 122.147 167.781 121.82C168.047 121.487 168.181 121.04 168.181 120.48V118H169.041V123H168.181V122.23C167.854 122.81 167.341 123.1 166.641 123.1ZM171.162 123V115.5H172.022V123H171.162ZM175.482 125.09H174.522L175.612 122.74L173.422 118H174.372L176.092 121.8L177.802 118H178.762L175.482 125.09ZM180.702 122.78L179.672 124.43H179.102L179.772 123C179.499 122.867 179.362 122.643 179.362 122.33C179.362 122.13 179.436 121.957 179.582 121.81C179.729 121.657 179.902 121.58 180.102 121.58C180.302 121.58 180.476 121.657 180.622 121.81C180.769 121.957 180.842 122.13 180.842 122.33C180.842 122.477 180.796 122.627 180.702 122.78ZM189.883 122.17V123H185.283V122.66C185.283 122.413 185.32 122.18 185.393 121.96C185.473 121.733 185.56 121.543 185.653 121.39C185.746 121.237 185.893 121.067 186.093 120.88C186.293 120.687 186.45 120.547 186.563 120.46C186.676 120.367 186.866 120.227 187.133 120.04C187.4 119.847 187.576 119.72 187.663 119.66C188.136 119.313 188.463 119.023 188.643 118.79C188.83 118.55 188.923 118.237 188.923 117.85C188.923 117.477 188.803 117.18 188.563 116.96C188.323 116.733 188.01 116.62 187.623 116.62C187.216 116.62 186.87 116.743 186.583 116.99C186.296 117.237 186.153 117.58 186.153 118.02H185.273C185.273 117.353 185.493 116.813 185.933 116.4C186.38 115.987 186.94 115.78 187.613 115.78C188.24 115.78 188.76 115.96 189.173 116.32C189.593 116.68 189.803 117.193 189.803 117.86C189.803 118.367 189.68 118.8 189.433 119.16C189.186 119.513 188.763 119.907 188.163 120.34C188.05 120.42 187.89 120.533 187.683 120.68C187.476 120.82 187.316 120.933 187.203 121.02C187.09 121.107 186.963 121.213 186.823 121.34C186.69 121.46 186.583 121.59 186.503 121.73C186.43 121.863 186.376 122.01 186.343 122.17H189.883ZM193.979 123.1C193.239 123.1 192.636 122.853 192.169 122.36C191.702 121.86 191.469 121.217 191.469 120.43V118.45C191.469 117.663 191.702 117.023 192.169 116.53C192.642 116.03 193.246 115.78 193.979 115.78C194.712 115.78 195.316 116.03 195.789 116.53C196.262 117.03 196.499 117.67 196.499 118.45V120.43C196.499 121.217 196.262 121.86 195.789 122.36C195.316 122.853 194.712 123.1 193.979 123.1ZM193.979 122.26C194.472 122.26 194.872 122.097 195.179 121.77C195.486 121.443 195.639 120.997 195.639 120.43V118.45C195.639 117.883 195.486 117.437 195.179 117.11C194.872 116.783 194.472 116.62 193.979 116.62C193.492 116.62 193.096 116.783 192.789 117.11C192.482 117.437 192.329 117.883 192.329 118.45V120.43C192.329 120.997 192.482 121.443 192.789 121.77C193.096 122.097 193.492 122.26 193.979 122.26ZM202.69 122.17V123H198.09V122.66C198.09 122.413 198.126 122.18 198.2 121.96C198.28 121.733 198.366 121.543 198.46 121.39C198.553 121.237 198.7 121.067 198.9 120.88C199.1 120.687 199.256 120.547 199.37 120.46C199.483 120.367 199.673 120.227 199.94 120.04C200.206 119.847 200.383 119.72 200.47 119.66C200.943 119.313 201.27 119.023 201.45 118.79C201.636 118.55 201.73 118.237 201.73 117.85C201.73 117.477 201.61 117.18 201.37 116.96C201.13 116.733 200.816 116.62 200.43 116.62C200.023 116.62 199.676 116.743 199.39 116.99C199.103 117.237 198.96 117.58 198.96 118.02H198.08C198.08 117.353 198.3 116.813 198.74 116.4C199.186 115.987 199.746 115.78 200.42 115.78C201.046 115.78 201.566 115.96 201.98 116.32C202.4 116.68 202.61 117.193 202.61 117.86C202.61 118.367 202.486 118.8 202.24 119.16C201.993 119.513 201.57 119.907 200.97 120.34C200.856 120.42 200.696 120.533 200.49 120.68C200.283 120.82 200.123 120.933 200.01 121.02C199.896 121.107 199.77 121.213 199.63 121.34C199.496 121.46 199.39 121.59 199.31 121.73C199.236 121.863 199.183 122.01 199.15 122.17H202.69ZM208.766 122.17V123H204.166V122.66C204.166 122.413 204.202 122.18 204.276 121.96C204.356 121.733 204.442 121.543 204.536 121.39C204.629 121.237 204.776 121.067 204.976 120.88C205.176 120.687 205.332 120.547 205.446 120.46C205.559 120.367 205.749 120.227 206.016 120.04C206.282 119.847 206.459 119.72 206.546 119.66C207.019 119.313 207.346 119.023 207.526 118.79C207.712 118.55 207.806 118.237 207.806 117.85C207.806 117.477 207.686 117.18 207.446 116.96C207.206 116.733 206.892 116.62 206.506 116.62C206.099 116.62 205.752 116.743 205.466 116.99C205.179 117.237 205.036 117.58 205.036 118.02H204.156C204.156 117.353 204.376 116.813 204.816 116.4C205.262 115.987 205.822 115.78 206.496 115.78C207.122 115.78 207.642 115.96 208.056 116.32C208.476 116.68 208.686 117.193 208.686 117.86C208.686 118.367 208.562 118.8 208.316 119.16C208.069 119.513 207.646 119.907 207.046 120.34C206.932 120.42 206.772 120.533 206.566 120.68C206.359 120.82 206.199 120.933 206.086 121.02C205.972 121.107 205.846 121.213 205.706 121.34C205.572 121.46 205.466 121.59 205.386 121.73C205.312 121.863 205.259 122.01 205.226 122.17H208.766Z" fill="#5A5A5A"/>
<circle cx="10" cy="45" r="10" fill="#A14323"/>
<path d="M14.8692 40.8462H13.6481C13.3825 40.8462 13.13 40.9695 12.9737 41.1808L8.88083 46.6654L7.02704 44.1797C6.87082 43.9709 6.62087 43.8451 6.3527 43.8451H5.13159C4.96236 43.8451 4.86342 44.0313 4.96236 44.1646L8.20649 48.5121C8.28312 48.6155 8.38415 48.6997 8.5012 48.7578C8.61825 48.8159 8.74794 48.8462 8.87953 48.8462C9.01111 48.8462 9.1408 48.8159 9.25785 48.7578C9.3749 48.6997 9.47593 48.6155 9.55256 48.5121L15.0358 41.1657C15.1374 41.0324 15.0384 40.8462 14.8692 40.8462V40.8462Z" fill="white"/>
<circle cx="10" cy="111" r="10" fill="#A14323"/>
<path d="M14.8692 106.846H13.6481C13.3825 106.846 13.13 106.969 12.9737 107.181L8.88083 112.665L7.02704 110.18C6.87082 109.971 6.62087 109.845 6.3527 109.845H5.13159C4.96236 109.845 4.86342 110.031 4.96236 110.165L8.20649 114.512C8.28312 114.615 8.38415 114.7 8.5012 114.758C8.61825 114.816 8.74794 114.846 8.87953 114.846C9.01111 114.846 9.1408 114.816 9.25785 114.758C9.3749 114.7 9.47593 114.615 9.55256 114.512L15.0358 107.166C15.1374 107.032 15.0384 106.846 14.8692 106.846V106.846Z" fill="white"/>
<circle cx="10" cy="175" r="10" fill="#A14323"/>
<path d="M14.8692 170.846H13.6481C13.3825 170.846 13.13 170.969 12.9737 171.181L8.88083 176.665L7.02704 174.18C6.87082 173.971 6.62087 173.845 6.3527 173.845H5.13159C4.96236 173.845 4.86342 174.031 4.96236 174.165L8.20649 178.512C8.28312 178.615 8.38415 178.7 8.5012 178.758C8.61825 178.816 8.74794 178.846 8.87953 178.846C9.01111 178.846 9.1408 178.816 9.25785 178.758C9.3749 178.7 9.47593 178.615 9.55256 178.512L15.0358 171.166C15.1374 171.032 15.0384 170.846 14.8692 170.846V170.846Z" fill="white"/>
</svg>