<svg width="9" height="9" viewBox="0 0 9 9" fill="none" xmlns="http://www.w3.org/2000/svg">
<path d="M7.9814 3.10347L5.74986 2.77915L4.7523 0.75679C4.72505 0.701419 4.68023 0.656595 4.62486 0.629349C4.48599 0.560794 4.31724 0.617923 4.24781 0.75679L3.25025 2.77915L1.01871 3.10347C0.957184 3.11226 0.900934 3.14126 0.857867 3.18521C0.805802 3.23872 0.777112 3.31072 0.778101 3.38537C0.77909 3.46003 0.809677 3.53124 0.863141 3.58335L2.47769 5.15747L2.09625 7.38023C2.0873 7.43193 2.09302 7.48511 2.11276 7.53373C2.1325 7.58235 2.16547 7.62447 2.20793 7.6553C2.25038 7.68614 2.30063 7.70446 2.35297 7.7082C2.40532 7.71193 2.45766 7.70092 2.50406 7.67642L4.50005 6.62701L6.49605 7.67642C6.55054 7.70542 6.61382 7.71509 6.67447 7.70454C6.8274 7.67818 6.93023 7.53316 6.90386 7.38023L6.52242 5.15747L8.13697 3.58335C8.18091 3.54029 8.20992 3.48404 8.21871 3.42251C8.24244 3.2687 8.13521 3.12632 7.9814 3.10347Z" fill="#A14323"/>
</svg>
