<svg
              width="13"
              height="13"
              viewBox="0 0 13 13"
              fill="none"
              xmlns="http://www.w3.org/2000/svg"
            >
              <path
                d="M11.7178 3.6004C11.5476 3.20638 11.3022 2.84933 10.9954 2.54923C10.6884 2.24823 10.3263 2.00903 9.929 1.84464C9.51701 1.6735 9.07513 1.5859 8.629 1.58692C8.00313 1.58692 7.39248 1.75831 6.86182 2.08204C6.73486 2.15948 6.61426 2.24454 6.5 2.33722C6.38574 2.24454 6.26514 2.15948 6.13818 2.08204C5.60752 1.75831 4.99687 1.58692 4.371 1.58692C3.92031 1.58692 3.48359 1.67325 3.071 1.84464C2.67236 2.00968 2.31309 2.24708 2.00459 2.54923C1.69736 2.84899 1.45193 3.20613 1.28223 3.6004C1.10576 4.01046 1.01562 4.44591 1.01562 4.89405C1.01562 5.31681 1.10195 5.75733 1.27334 6.20548C1.4168 6.57999 1.62246 6.96847 1.88525 7.36075C2.30166 7.98155 2.87422 8.62901 3.58516 9.28536C4.76328 10.3733 5.92998 11.1249 5.97949 11.1554L6.28037 11.3483C6.41367 11.4334 6.58506 11.4334 6.71836 11.3483L7.01924 11.1554C7.06875 11.1236 8.23418 10.3733 9.41357 9.28536C10.1245 8.62901 10.6971 7.98155 11.1135 7.36075C11.3763 6.96847 11.5832 6.57999 11.7254 6.20548C11.8968 5.75733 11.9831 5.31681 11.9831 4.89405C11.9844 4.44591 11.8942 4.01046 11.7178 3.6004V3.6004ZM6.5 10.3441C6.5 10.3441 1.98047 7.44835 1.98047 4.89405C1.98047 3.6004 3.05068 2.55177 4.371 2.55177C5.29902 2.55177 6.10391 3.06974 6.5 3.82638C6.89609 3.06974 7.70098 2.55177 8.629 2.55177C9.94932 2.55177 11.0195 3.6004 11.0195 4.89405C11.0195 7.44835 6.5 10.3441 6.5 10.3441Z"
                fill="black"
              />
            </svg>